<?xml version="1.0" encoding="UTF-8"?>
<!-- Do not edit this file with editors other than draw.io -->
<!DOCTYPE svg PUBLIC "-//W3C//DTD SVG 1.1//EN" "http://www.w3.org/Graphics/SVG/1.1/DTD/svg11.dtd">
<svg xmlns="http://www.w3.org/2000/svg" style="background: transparent; background-color: transparent; color-scheme: light dark;" xmlns:xlink="http://www.w3.org/1999/xlink" version="1.1" width="764px" height="1005px" viewBox="0 0 764 1005" content="&lt;mxfile host=&quot;app.diagrams.net&quot; agent=&quot;Mozilla/5.0 (Windows NT 10.0; Win64; x64; rv:148.0) Gecko/20100101 Firefox/148.0&quot; version=&quot;29.6.0&quot;&gt;&#xA;  &lt;diagram name=&quot;Page-1&quot; id=&quot;7uFBsVsk0n3Yq1380Oxa&quot;&gt;&#xA;    &lt;mxGraphModel dx=&quot;1329&quot; dy=&quot;787&quot; grid=&quot;1&quot; gridSize=&quot;10&quot; guides=&quot;1&quot; tooltips=&quot;1&quot; connect=&quot;1&quot; arrows=&quot;1&quot; fold=&quot;1&quot; page=&quot;1&quot; pageScale=&quot;1&quot; pageWidth=&quot;850&quot; pageHeight=&quot;1100&quot; math=&quot;0&quot; shadow=&quot;0&quot;&gt;&#xA;      &lt;root&gt;&#xA;        &lt;mxCell id=&quot;0&quot; /&gt;&#xA;        &lt;mxCell id=&quot;1&quot; parent=&quot;0&quot; /&gt;&#xA;        &lt;object label=&quot;Internet&quot; Internet=&quot;&quot; id=&quot;-OQlE5UzZAIxYqtkla3L-9&quot;&gt;&#xA;          &lt;mxCell parent=&quot;1&quot; style=&quot;shape=mxgraph.networks2.icon;aspect=fixed;fillColor=#09555B;strokeColor=#BAC8D3;network2IconShadow=1;network2bgFillColor=none;labelPosition=center;verticalLabelPosition=bottom;align=center;verticalAlign=top;network2Icon=mxgraph.networks2.globe;network2IconW=1;network2IconH=1;labelBackgroundColor=none;fontColor=#000000;fontSize=15;fontFamily=Verdana;&quot; vertex=&quot;1&quot;&gt;&#xA;            &lt;mxGeometry height=&quot;149.25729569661365&quot; width=&quot;149.25729569661365&quot; x=&quot;499.999756097561&quot; y=&quot;6.559999999999999&quot; as=&quot;geometry&quot; /&gt;&#xA;          &lt;/mxCell&gt;&#xA;        &lt;/object&gt;&#xA;        &lt;mxCell id=&quot;-OQlE5UzZAIxYqtkla3L-16&quot; parent=&quot;1&quot; style=&quot;fillColorStyles=neutralFill;neutralFill=#9DA6A8;shape=mxgraph.networks2.icon;aspect=fixed;fillColor=#EDEDED;strokeColor=#000000;gradientColor=#5B6163;network2IconShadow=1;network2bgFillColor=none;labelPosition=center;verticalLabelPosition=bottom;align=center;verticalAlign=top;network2Icon=mxgraph.networks2.router;network2IconXOffset=0.0001;network2IconYOffset=-0.1142;network2IconW=1;network2IconH=0.5485;fontColor=#000000;labelBackgroundColor=none;fontFamily=Verdana;&quot; value=&quot;Main home router&amp;#xa;&quot; vertex=&quot;1&quot;&gt;&#xA;          &lt;mxGeometry height=&quot;55.82&quot; width=&quot;101.77&quot; x=&quot;244.07999999999998&quot; y=&quot;100&quot; as=&quot;geometry&quot; /&gt;&#xA;        &lt;/mxCell&gt;&#xA;        &lt;mxCell id=&quot;-OQlE5UzZAIxYqtkla3L-33&quot; parent=&quot;1&quot; style=&quot;fillColorStyles=neutralFill;neutralFill=#9DA6A8;shape=mxgraph.networks2.icon;aspect=fixed;fillColor=#EDEDED;strokeColor=#000000;gradientColor=#5B6163;network2IconShadow=1;network2bgFillColor=none;labelPosition=center;verticalLabelPosition=bottom;align=center;verticalAlign=top;network2Icon=mxgraph.networks2.server;network2IconW=1.0001;network2IconH=0.5812;fontColor=#000000;fontFamily=Verdana;textShadow=1;whiteSpace=wrap;html=1;convertToSvg=1;autosizeText=1;fontSize=17;&quot; value=&quot;Proxmox server&quot; vertex=&quot;1&quot;&gt;&#xA;          &lt;mxGeometry height=&quot;60&quot; width=&quot;103.23&quot; x=&quot;510&quot; y=&quot;290&quot; as=&quot;geometry&quot; /&gt;&#xA;        &lt;/mxCell&gt;&#xA;        &lt;mxCell id=&quot;-OQlE5UzZAIxYqtkla3L-37&quot; edge=&quot;1&quot; parent=&quot;1&quot; style=&quot;endArrow=classic;html=1;fontColor=light-dark(#FF005D,#EDEDED);rounded=0;strokeColor=#0B4D6A;fontSize=14;fontFamily=Verdana;edgeStyle=orthogonalEdgeStyle;flowAnimation=1;&quot; value=&quot;vmbr0&quot;&gt;&#xA;          &lt;mxGeometry height=&quot;50&quot; relative=&quot;1&quot; width=&quot;50&quot; x=&quot;0.2186&quot; y=&quot;5&quot; as=&quot;geometry&quot;&gt;&#xA;            &lt;mxPoint as=&quot;offset&quot; /&gt;&#xA;            &lt;Array as=&quot;points&quot;&gt;&#xA;              &lt;mxPoint x=&quot;307&quot; y=&quot;370&quot; /&gt;&#xA;              &lt;mxPoint x=&quot;400&quot; y=&quot;370&quot; /&gt;&#xA;              &lt;mxPoint x=&quot;400&quot; y=&quot;330&quot; /&gt;&#xA;            &lt;/Array&gt;&#xA;            &lt;mxPoint x=&quot;360&quot; y=&quot;370&quot; as=&quot;sourcePoint&quot; /&gt;&#xA;            &lt;mxPoint x=&quot;510&quot; y=&quot;330&quot; as=&quot;targetPoint&quot; /&gt;&#xA;          &lt;/mxGeometry&gt;&#xA;        &lt;/mxCell&gt;&#xA;        &lt;mxCell id=&quot;-OQlE5UzZAIxYqtkla3L-40&quot; parent=&quot;1&quot; style=&quot;shape=mxgraph.networks2.icon;aspect=fixed;fillColor=#EDEDED;strokeColor=#000000;gradientColor=#5B6163;network2IconShadow=1;network2bgFillColor=none;labelPosition=center;verticalLabelPosition=bottom;align=center;verticalAlign=top;network2Icon=mxgraph.networks2.firewall;network2IconXOffset=0.0001;network2IconYOffset=0.0001;network2IconW=1;network2IconH=0.608;fontColor=#000000;fontFamily=Verdana;fontSize=13;&quot; value=&quot;PfSense Firewall&quot; vertex=&quot;1&quot;&gt;&#xA;          &lt;mxGeometry height=&quot;67.49&quot; width=&quot;111&quot; x=&quot;190&quot; y=&quot;490&quot; as=&quot;geometry&quot; /&gt;&#xA;        &lt;/mxCell&gt;&#xA;        &lt;mxCell id=&quot;-OQlE5UzZAIxYqtkla3L-51&quot; connectable=&quot;0&quot; parent=&quot;1&quot; style=&quot;group;labelBackgroundColor=#EA6B66;fontSize=13;textShadow=0;fillColor=#dae8fc;strokeColor=#6c8ebf;strokeWidth=2;&quot; value=&quot;Victims&amp;#xa;Network segment &amp;#xa;10.0.0.0/24&quot; vertex=&quot;1&quot;&gt;&#xA;          &lt;mxGeometry height=&quot;170&quot; width=&quot;270&quot; x=&quot;529.26&quot; y=&quot;580&quot; as=&quot;geometry&quot; /&gt;&#xA;        &lt;/mxCell&gt;&#xA;        &lt;mxCell id=&quot;-OQlE5UzZAIxYqtkla3L-23&quot; parent=&quot;-OQlE5UzZAIxYqtkla3L-51&quot; style=&quot;sketch=0;pointerEvents=1;shadow=0;dashed=0;html=1;strokeColor=none;fillColor=#434445;aspect=fixed;labelPosition=center;verticalLabelPosition=bottom;verticalAlign=top;align=center;outlineConnect=0;shape=mxgraph.vvd.virtual_machine;fontColor=#000000;fontFamily=Verdana;&quot; value=&quot;Win 10&quot; vertex=&quot;1&quot;&gt;&#xA;          &lt;mxGeometry height=&quot;50&quot; width=&quot;50&quot; x=&quot;210.00329408071886&quot; as=&quot;geometry&quot; /&gt;&#xA;        &lt;/mxCell&gt;&#xA;        &lt;mxCell id=&quot;-OQlE5UzZAIxYqtkla3L-24&quot; parent=&quot;-OQlE5UzZAIxYqtkla3L-51&quot; style=&quot;sketch=0;pointerEvents=1;shadow=0;dashed=0;html=1;strokeColor=none;fillColor=#434445;aspect=fixed;labelPosition=center;verticalLabelPosition=bottom;verticalAlign=top;align=center;outlineConnect=0;shape=mxgraph.vvd.virtual_machine;fontColor=#000000;fontFamily=Verdana;&quot; value=&quot;Win 11&quot; vertex=&quot;1&quot;&gt;&#xA;          &lt;mxGeometry height=&quot;50&quot; width=&quot;50&quot; x=&quot;99.99788412365294&quot; y=&quot;90.00153846153847&quot; as=&quot;geometry&quot; /&gt;&#xA;        &lt;/mxCell&gt;&#xA;        &lt;mxCell id=&quot;-OQlE5UzZAIxYqtkla3L-25&quot; parent=&quot;-OQlE5UzZAIxYqtkla3L-51&quot; style=&quot;sketch=0;pointerEvents=1;shadow=0;dashed=0;html=1;strokeColor=none;fillColor=#434445;aspect=fixed;labelPosition=center;verticalLabelPosition=bottom;verticalAlign=top;align=center;outlineConnect=0;shape=mxgraph.vvd.virtual_machine;fontColor=#000000;fontFamily=Verdana;&quot; value=&quot;Kiopttrix&quot; vertex=&quot;1&quot;&gt;&#xA;          &lt;mxGeometry height=&quot;50&quot; width=&quot;50&quot; x=&quot;5&quot; as=&quot;geometry&quot; /&gt;&#xA;        &lt;/mxCell&gt;&#xA;        &lt;mxCell id=&quot;-OQlE5UzZAIxYqtkla3L-62&quot; connectable=&quot;0&quot; parent=&quot;1&quot; style=&quot;group;flipH=0;legacyAnchorPoints=0;flipV=0;labelBorderColor=#3333FF;labelBackgroundColor=#EA6B66;html=1;fontSize=13;fillColor=#f8cecc;strokeColor=#b85450;strokeWidth=2;fillStyle=solid;&quot; value=&quot;&amp;lt;div&amp;gt;Attackers&amp;lt;/div&amp;gt;&amp;lt;div&amp;gt;Network Seg&amp;lt;/div&amp;gt;&amp;lt;div&amp;gt;192.168.1.0/24&amp;lt;/div&amp;gt;&quot; vertex=&quot;1&quot;&gt;&#xA;          &lt;mxGeometry height=&quot;170&quot; width=&quot;240&quot; x=&quot;79.97&quot; y=&quot;840&quot; as=&quot;geometry&quot; /&gt;&#xA;        &lt;/mxCell&gt;&#xA;        &lt;mxCell id=&quot;-OQlE5UzZAIxYqtkla3L-21&quot; parent=&quot;-OQlE5UzZAIxYqtkla3L-62&quot; style=&quot;sketch=0;pointerEvents=1;shadow=0;dashed=0;html=1;strokeColor=none;fillColor=#434445;aspect=fixed;labelPosition=center;verticalLabelPosition=bottom;verticalAlign=top;align=center;outlineConnect=0;shape=mxgraph.vvd.virtual_machine;fontColor=#000000;fontFamily=Verdana;&quot; value=&quot;Kali-linux&quot; vertex=&quot;1&quot;&gt;&#xA;          &lt;mxGeometry height=&quot;50&quot; width=&quot;50&quot; x=&quot;179.99994519546948&quot; as=&quot;geometry&quot; /&gt;&#xA;        &lt;/mxCell&gt;&#xA;        &lt;mxCell id=&quot;-OQlE5UzZAIxYqtkla3L-22&quot; parent=&quot;-OQlE5UzZAIxYqtkla3L-62&quot; style=&quot;sketch=0;pointerEvents=1;shadow=0;dashed=0;html=1;strokeColor=none;fillColor=#434445;aspect=fixed;labelPosition=center;verticalLabelPosition=bottom;verticalAlign=top;align=center;outlineConnect=0;shape=mxgraph.vvd.virtual_machine;fontColor=#000000;fontFamily=Verdana;&quot; value=&quot;Parrot Os&quot; vertex=&quot;1&quot;&gt;&#xA;          &lt;mxGeometry height=&quot;50&quot; width=&quot;50&quot; x=&quot;10&quot; as=&quot;geometry&quot; /&gt;&#xA;        &lt;/mxCell&gt;&#xA;        &lt;mxCell id=&quot;-OQlE5UzZAIxYqtkla3L-70&quot; edge=&quot;1&quot; parent=&quot;1&quot; source=&quot;-OQlE5UzZAIxYqtkla3L-9&quot; style=&quot;endArrow=classic;html=1;edgeStyle=orthogonalEdgeStyle;rounded=0;strokeColor=#0B4D6A;endFill=1;entryX=0.982;entryY=0.609;entryDx=0;entryDy=0;entryPerimeter=0;flowAnimation=1;strokeWidth=2;fontFamily=Verdana;fontSize=14;fontColor=#FF0B23;exitX=0.241;exitY=0.887;exitDx=0;exitDy=0;exitPerimeter=0;&quot; target=&quot;-OQlE5UzZAIxYqtkla3L-16&quot; value=&quot;vmbr0&quot;&gt;&#xA;          &lt;mxGeometry relative=&quot;1&quot; as=&quot;geometry&quot;&gt;&#xA;            &lt;Array as=&quot;points&quot;&gt;&#xA;              &lt;mxPoint x=&quot;440&quot; y=&quot;139&quot; /&gt;&#xA;              &lt;mxPoint x=&quot;440&quot; y=&quot;140&quot; /&gt;&#xA;              &lt;mxPoint x=&quot;344&quot; y=&quot;140&quot; /&gt;&#xA;            &lt;/Array&gt;&#xA;            &lt;mxPoint x=&quot;430&quot; y=&quot;274&quot; as=&quot;sourcePoint&quot; /&gt;&#xA;            &lt;mxPoint x=&quot;410&quot; y=&quot;280&quot; as=&quot;targetPoint&quot; /&gt;&#xA;          &lt;/mxGeometry&gt;&#xA;        &lt;/mxCell&gt;&#xA;        &lt;mxCell id=&quot;-OQlE5UzZAIxYqtkla3L-85&quot; edge=&quot;1&quot; parent=&quot;1&quot; style=&quot;endArrow=classic;html=1;fontColor=#FF3333;rounded=0;strokeColor=#0B4D6A;fontSize=14;fontFamily=Verdana;edgeStyle=orthogonalEdgeStyle;strokeWidth=2;&quot; target=&quot;-OQlE5UzZAIxYqtkla3L-40&quot; value=&quot;&quot;&gt;&#xA;          &lt;mxGeometry height=&quot;50&quot; relative=&quot;1&quot; width=&quot;50&quot; as=&quot;geometry&quot;&gt;&#xA;            &lt;Array as=&quot;points&quot;&gt;&#xA;              &lt;mxPoint x=&quot;520&quot; y=&quot;350&quot; /&gt;&#xA;              &lt;mxPoint x=&quot;519&quot; y=&quot;350&quot; /&gt;&#xA;              &lt;mxPoint x=&quot;519&quot; y=&quot;440&quot; /&gt;&#xA;              &lt;mxPoint x=&quot;430&quot; y=&quot;440&quot; /&gt;&#xA;              &lt;mxPoint x=&quot;430&quot; y=&quot;524&quot; /&gt;&#xA;            &lt;/Array&gt;&#xA;            &lt;mxPoint x=&quot;520&quot; y=&quot;370&quot; as=&quot;sourcePoint&quot; /&gt;&#xA;            &lt;mxPoint x=&quot;397&quot; y=&quot;760&quot; as=&quot;targetPoint&quot; /&gt;&#xA;          &lt;/mxGeometry&gt;&#xA;        &lt;/mxCell&gt;&#xA;        &lt;mxCell id=&quot;-OQlE5UzZAIxYqtkla3L-86&quot; edge=&quot;1&quot; parent=&quot;1&quot; source=&quot;-OQlE5UzZAIxYqtkla3L-38&quot; style=&quot;endArrow=classic;fontColor=#000000;rounded=0;strokeColor=#0B4D6A;fontSize=14;fontFamily=Verdana;edgeStyle=orthogonalEdgeStyle;labelBackgroundColor=default;convertToSvg=0;html=1;&quot; value=&quot;vmbr2&quot;&gt;&#xA;          &lt;mxGeometry height=&quot;50&quot; relative=&quot;1&quot; width=&quot;50&quot; x=&quot;-0.4863&quot; as=&quot;geometry&quot;&gt;&#xA;            &lt;mxPoint as=&quot;offset&quot; /&gt;&#xA;            &lt;Array as=&quot;points&quot;&gt;&#xA;              &lt;mxPoint x=&quot;530&quot; y=&quot;680&quot; /&gt;&#xA;            &lt;/Array&gt;&#xA;            &lt;mxPoint x=&quot;490&quot; y=&quot;840&quot; as=&quot;sourcePoint&quot; /&gt;&#xA;            &lt;mxPoint x=&quot;530&quot; y=&quot;680&quot; as=&quot;targetPoint&quot; /&gt;&#xA;          &lt;/mxGeometry&gt;&#xA;        &lt;/mxCell&gt;&#xA;        &lt;mxCell id=&quot;-OQlE5UzZAIxYqtkla3L-87&quot; edge=&quot;1&quot; parent=&quot;1&quot; source=&quot;-OQlE5UzZAIxYqtkla3L-38&quot; style=&quot;endArrow=classic;html=1;fontColor=#000000;rounded=0;strokeColor=#0B4D6A;fontSize=14;fontFamily=Verdana;edgeStyle=orthogonalEdgeStyle;&quot; value=&quot;Vmbr1&quot;&gt;&#xA;          &lt;mxGeometry height=&quot;50&quot; relative=&quot;1&quot; width=&quot;50&quot; x=&quot;-0.0804&quot; as=&quot;geometry&quot;&gt;&#xA;            &lt;mxPoint as=&quot;offset&quot; /&gt;&#xA;            &lt;Array as=&quot;points&quot;&gt;&#xA;              &lt;mxPoint x=&quot;282&quot; y=&quot;740&quot; /&gt;&#xA;              &lt;mxPoint x=&quot;180&quot; y=&quot;740&quot; /&gt;&#xA;              &lt;mxPoint x=&quot;180&quot; y=&quot;830&quot; /&gt;&#xA;              &lt;mxPoint x=&quot;190&quot; y=&quot;830&quot; /&gt;&#xA;            &lt;/Array&gt;&#xA;            &lt;mxPoint x=&quot;322&quot; y=&quot;840&quot; as=&quot;sourcePoint&quot; /&gt;&#xA;            &lt;mxPoint x=&quot;190&quot; y=&quot;840&quot; as=&quot;targetPoint&quot; /&gt;&#xA;          &lt;/mxGeometry&gt;&#xA;        &lt;/mxCell&gt;&#xA;        &lt;mxCell id=&quot;-OQlE5UzZAIxYqtkla3L-95&quot; edge=&quot;1&quot; parent=&quot;1&quot; style=&quot;endArrow=classic;startArrow=classic;html=1;rounded=0;strokeColor=#0B4D6A;exitX=1.034;exitY=0.187;exitDx=0;exitDy=0;exitPerimeter=0;flowAnimation=1;fontSize=12;fontFamily=Verdana;strokeWidth=2;autosizeText=1;convertToSvg=1;&quot; value=&quot;Monitored Traffic/IDS&quot;&gt;&#xA;          &lt;mxGeometry height=&quot;50&quot; relative=&quot;1&quot; width=&quot;50&quot; x=&quot;0.1903&quot; y=&quot;-8&quot; as=&quot;geometry&quot;&gt;&#xA;            &lt;mxPoint as=&quot;offset&quot; /&gt;&#xA;            &lt;Array as=&quot;points&quot;&gt;&#xA;              &lt;mxPoint x=&quot;770&quot; y=&quot;892&quot; /&gt;&#xA;            &lt;/Array&gt;&#xA;            &lt;mxPoint x=&quot;659.9580000000001&quot; y=&quot;891.98559&quot; as=&quot;sourcePoint&quot; /&gt;&#xA;            &lt;mxPoint x=&quot;770&quot; y=&quot;750&quot; as=&quot;targetPoint&quot; /&gt;&#xA;          &lt;/mxGeometry&gt;&#xA;        &lt;/mxCell&gt;&#xA;        &lt;mxCell id=&quot;-OQlE5UzZAIxYqtkla3L-96&quot; edge=&quot;1&quot; parent=&quot;1&quot; style=&quot;endArrow=classic;startArrow=classic;html=1;rounded=0;strokeColor=#0B4D6A;flowAnimation=1;fontSize=12;fontFamily=Verdana;strokeWidth=2;exitX=-0.011;exitY=0.434;exitDx=0;exitDy=0;exitPerimeter=0;&quot; value=&quot;Monitored Traffic/IDS&quot;&gt;&#xA;          &lt;mxGeometry height=&quot;50&quot; relative=&quot;1&quot; width=&quot;50&quot; x=&quot;0.0285&quot; y=&quot;10&quot; as=&quot;geometry&quot;&gt;&#xA;            &lt;mxPoint as=&quot;offset&quot; /&gt;&#xA;            &lt;Array as=&quot;points&quot;&gt;&#xA;              &lt;mxPoint x=&quot;321.77&quot; y=&quot;920&quot; /&gt;&#xA;            &lt;/Array&gt;&#xA;            &lt;mxPoint x=&quot;569.0430000000001&quot; y=&quot;921.02538&quot; as=&quot;sourcePoint&quot; /&gt;&#xA;            &lt;mxPoint x=&quot;321.77&quot; y=&quot;920&quot; as=&quot;targetPoint&quot; /&gt;&#xA;          &lt;/mxGeometry&gt;&#xA;        &lt;/mxCell&gt;&#xA;        &lt;mxCell id=&quot;-OQlE5UzZAIxYqtkla3L-107&quot; edge=&quot;1&quot; parent=&quot;1&quot; style=&quot;endArrow=open;endFill=1;endSize=12;html=1;rounded=0;strokeColor=#0B4D6A;edgeStyle=orthogonalEdgeStyle;fontSize=12;fontFamily=Verdana;flowAnimation=1;strokeWidth=2;&quot; value=&quot;Vmbr0&quot;&gt;&#xA;          &lt;mxGeometry relative=&quot;1&quot; width=&quot;160&quot; as=&quot;geometry&quot;&gt;&#xA;            &lt;Array as=&quot;points&quot;&gt;&#xA;              &lt;mxPoint x=&quot;160&quot; y=&quot;520&quot; /&gt;&#xA;              &lt;mxPoint x=&quot;160&quot; y=&quot;760&quot; /&gt;&#xA;            &lt;/Array&gt;&#xA;            &lt;mxPoint x=&quot;200&quot; y=&quot;520&quot; as=&quot;sourcePoint&quot; /&gt;&#xA;            &lt;mxPoint x=&quot;160&quot; y=&quot;840&quot; as=&quot;targetPoint&quot; /&gt;&#xA;          &lt;/mxGeometry&gt;&#xA;        &lt;/mxCell&gt;&#xA;        &lt;mxCell id=&quot;-OQlE5UzZAIxYqtkla3L-109&quot; edge=&quot;1&quot; parent=&quot;1&quot; source=&quot;-OQlE5UzZAIxYqtkla3L-40&quot; style=&quot;endArrow=classic;html=1;fontColor=#000000;rounded=0;strokeColor=#0B4D6A;fontSize=14;fontFamily=Verdana;edgeStyle=orthogonalEdgeStyle;strokeWidth=2;entryX=0.511;entryY=0.01;entryDx=0;entryDy=0;entryPerimeter=0;&quot; target=&quot;-OQlE5UzZAIxYqtkla3L-38&quot; value=&quot;&quot;&gt;&#xA;          &lt;mxGeometry height=&quot;50&quot; relative=&quot;1&quot; width=&quot;50&quot; x=&quot;0.2916&quot; as=&quot;geometry&quot;&gt;&#xA;            &lt;mxPoint as=&quot;offset&quot; /&gt;&#xA;            &lt;Array as=&quot;points&quot;&gt;&#xA;              &lt;mxPoint x=&quot;246&quot; y=&quot;560&quot; /&gt;&#xA;              &lt;mxPoint x=&quot;387&quot; y=&quot;560&quot; /&gt;&#xA;              &lt;mxPoint x=&quot;387&quot; y=&quot;590&quot; /&gt;&#xA;              &lt;mxPoint x=&quot;293&quot; y=&quot;590&quot; /&gt;&#xA;            &lt;/Array&gt;&#xA;            &lt;mxPoint x=&quot;387&quot; y=&quot;540&quot; as=&quot;sourcePoint&quot; /&gt;&#xA;            &lt;mxPoint x=&quot;387&quot; y=&quot;750&quot; as=&quot;targetPoint&quot; /&gt;&#xA;          &lt;/mxGeometry&gt;&#xA;        &lt;/mxCell&gt;&#xA;        &lt;mxCell id=&quot;-OQlE5UzZAIxYqtkla3L-38&quot; parent=&quot;1&quot; style=&quot;sketch=0;pointerEvents=1;shadow=0;dashed=0;html=1;strokeColor=none;fillColor=#434445;aspect=fixed;labelPosition=center;verticalLabelPosition=bottom;verticalAlign=top;align=center;outlineConnect=0;shape=mxgraph.vvd.external_networks;fontColor=#000000;rotation=0;&quot; value=&quot;&amp;lt;font style=&amp;quot;font-size: 18px;&amp;quot;&amp;gt;LAN&amp;lt;/font&amp;gt;&quot; vertex=&quot;1&quot;&gt;&#xA;          &lt;mxGeometry height=&quot;100&quot; width=&quot;142.85&quot; x=&quot;210&quot; y=&quot;600&quot; as=&quot;geometry&quot; /&gt;&#xA;        &lt;/mxCell&gt;&#xA;        &lt;mxCell id=&quot;-OQlE5UzZAIxYqtkla3L-112&quot; edge=&quot;1&quot; parent=&quot;1&quot; source=&quot;-OQlE5UzZAIxYqtkla3L-16&quot; style=&quot;endArrow=block;endFill=1;html=1;edgeStyle=orthogonalEdgeStyle;align=left;verticalAlign=top;rounded=0;strokeColor=#0B4D6A;&quot; target=&quot;-OQlE5UzZAIxYqtkla3L-97&quot; value=&quot;&quot;&gt;&#xA;          &lt;mxGeometry relative=&quot;1&quot; x=&quot;-1&quot; as=&quot;geometry&quot;&gt;&#xA;            &lt;Array as=&quot;points&quot; /&gt;&#xA;            &lt;mxPoint x=&quot;295&quot; y=&quot;156&quot; as=&quot;sourcePoint&quot; /&gt;&#xA;            &lt;mxPoint x=&quot;310&quot; y=&quot;480&quot; as=&quot;targetPoint&quot; /&gt;&#xA;          &lt;/mxGeometry&gt;&#xA;        &lt;/mxCell&gt;&#xA;        &lt;mxCell id=&quot;-OQlE5UzZAIxYqtkla3L-113&quot; connectable=&quot;0&quot; parent=&quot;-OQlE5UzZAIxYqtkla3L-112&quot; style=&quot;edgeLabel;resizable=0;html=1;align=left;verticalAlign=bottom;strokeColor=#BAC8D3;fontColor=#EEEEEE;fillColor=#09555B;&quot; value=&quot;1&quot; vertex=&quot;1&quot;&gt;&#xA;          &lt;mxGeometry relative=&quot;1&quot; x=&quot;-1&quot; as=&quot;geometry&quot; /&gt;&#xA;        &lt;/mxCell&gt;&#xA;        &lt;mxCell id=&quot;-OQlE5UzZAIxYqtkla3L-97&quot; parent=&quot;1&quot; style=&quot;image;sketch=0;aspect=fixed;html=1;points=[];align=center;fontSize=12;image=img/lib/mscae/Virtual_WANs.svg;strokeColor=#BAC8D3;fontColor=#000000;fillColor=#09555B;convertToSvg=1;textShadow=0;&quot; value=&quot;WAN&quot; vertex=&quot;1&quot;&gt;&#xA;          &lt;mxGeometry height=&quot;50&quot; width=&quot;50&quot; x=&quot;269.97&quot; y=&quot;220&quot; as=&quot;geometry&quot; /&gt;&#xA;        &lt;/mxCell&gt;&#xA;        &lt;mxCell id=&quot;-OQlE5UzZAIxYqtkla3L-114&quot; edge=&quot;1&quot; parent=&quot;1&quot; style=&quot;endArrow=block;endFill=1;html=1;edgeStyle=orthogonalEdgeStyle;align=left;verticalAlign=top;rounded=0;strokeColor=#0B4D6A;entryX=0.512;entryY=0.576;entryDx=0;entryDy=0;entryPerimeter=0;&quot; target=&quot;-OQlE5UzZAIxYqtkla3L-19&quot; value=&quot;&quot;&gt;&#xA;          &lt;mxGeometry relative=&quot;1&quot; x=&quot;-1&quot; as=&quot;geometry&quot;&gt;&#xA;            &lt;Array as=&quot;points&quot; /&gt;&#xA;            &lt;mxPoint x=&quot;295&quot; y=&quot;200&quot; as=&quot;sourcePoint&quot; /&gt;&#xA;            &lt;mxPoint x=&quot;310&quot; y=&quot;480&quot; as=&quot;targetPoint&quot; /&gt;&#xA;          &lt;/mxGeometry&gt;&#xA;        &lt;/mxCell&gt;&#xA;        &lt;mxCell id=&quot;-OQlE5UzZAIxYqtkla3L-19&quot; parent=&quot;1&quot; style=&quot;fillColorStyles=neutralFill;neutralFill=#9DA6A8;shape=mxgraph.networks2.icon;aspect=fixed;fillColor=#EDEDED;strokeColor=#000000;gradientColor=#5B6163;network2IconShadow=1;network2bgFillColor=none;labelPosition=center;verticalLabelPosition=bottom;align=center;verticalAlign=top;network2Icon=mxgraph.networks2.router;network2IconXOffset=0.0001;network2IconYOffset=-0.1142;network2IconW=1;network2IconH=0.5485;fontColor=#000000;fontFamily=Verdana;&quot; value=&quot;Personal router&quot; vertex=&quot;1&quot;&gt;&#xA;          &lt;mxGeometry height=&quot;50.34&quot; width=&quot;91.77&quot; x=&quot;229.99999999999994&quot; y=&quot;330&quot; as=&quot;geometry&quot; /&gt;&#xA;        &lt;/mxCell&gt;&#xA;        &lt;mxCell id=&quot;-OQlE5UzZAIxYqtkla3L-115&quot; parent=&quot;1&quot; style=&quot;sketch=0;pointerEvents=1;shadow=0;dashed=0;html=1;strokeColor=none;fillColor=#434445;aspect=fixed;labelPosition=center;verticalLabelPosition=bottom;verticalAlign=top;align=center;outlineConnect=0;shape=mxgraph.vvd.virtual_machine;fontColor=light-dark(#000000, #202020);&quot; value=&quot;&amp;lt;font face=&amp;quot;Verdana&amp;quot; style=&amp;quot;font-size: 13px;&amp;quot;&amp;gt;SecurityOnion&amp;lt;/font&amp;gt;&quot; vertex=&quot;1&quot;&gt;&#xA;          &lt;mxGeometry height=&quot;90&quot; width=&quot;90&quot; x=&quot;570&quot; y=&quot;870&quot; as=&quot;geometry&quot; /&gt;&#xA;        &lt;/mxCell&gt;&#xA;        &lt;mxCell id=&quot;-OQlE5UzZAIxYqtkla3L-116&quot; parent=&quot;1&quot; style=&quot;image;sketch=0;aspect=fixed;html=1;points=[];align=center;fontSize=12;image=img/lib/mscae/Application_Security_Groups.svg;strokeColor=#BAC8D3;fontColor=#EEEEEE;fillColor=#09555B;convertToSvg=1;whiteSpace=wrap;&quot; value=&quot;&quot; vertex=&quot;1&quot;&gt;&#xA;          &lt;mxGeometry height=&quot;50&quot; width=&quot;37&quot; x=&quot;596.5&quot; y=&quot;920&quot; as=&quot;geometry&quot; /&gt;&#xA;        &lt;/mxCell&gt;&#xA;      &lt;/root&gt;&#xA;    &lt;/mxGraphModel&gt;&#xA;  &lt;/diagram&gt;&#xA;&lt;/mxfile&gt;&#xA;"><defs><style>@keyframes ge-flow-animation--jT4Sj8HCF1u66P0ZHjW {&#xa;  to {&#xa;    stroke-dashoffset: 0;&#xa;  }&#xa;}</style></defs><g><g data-cell-id="0"><g data-cell-id="1"><g data-cell-id="-OQlE5UzZAIxYqtkla3L-9"><g transform="translate(0.5,0.5)"><ellipse cx="495.63" cy="74.19" rx="73.1360748913407" ry="73.1360748913407" fill="#09555b" style="fill: light-dark(rgb(9, 85, 91), rgb(126, 191, 196));" stroke="none" pointer-events="all"/><path d="M 564.39 45.14 C 561.41 38.1 557.41 31.62 552.47 25.81 C 551.81 25.04 551.14 24.29 550.45 23.55 C 549.82 22.87 549.2 22.2 548.54 21.55 C 548.5 21.5 548.45 21.46 548.41 21.41 C 548.36 21.37 548.32 21.32 548.27 21.28 C 541.45 14.49 533.51 9.14 524.67 5.41 C 516.43 1.95 507.75 -0.01 498.79 -0.38 C 497.82 -0.41 496.85 -0.44 495.88 -0.44 C 495.79 -0.44 495.72 -0.44 495.63 -0.44 C 495.54 -0.44 495.46 -0.44 495.37 -0.44 C 485.39 -0.41 475.7 1.56 466.58 5.43 C 457.7 9.19 449.72 14.56 442.87 21.43 C 442.16 22.13 441.49 22.83 440.82 23.55 C 440.13 24.29 439.45 25.05 438.81 25.81 C 433.87 31.61 429.87 38.08 426.88 45.14 C 422.97 54.34 421 64.11 421 74.19 C 421 75.25 421.03 76.29 421.07 77.35 C 421.45 86.31 423.39 95.01 426.87 103.23 C 429.85 110.28 433.85 116.76 438.79 122.56 C 439.45 123.34 440.12 124.09 440.81 124.83 C 441.24 125.29 441.67 125.76 442.12 126.2 C 442.36 126.46 442.61 126.7 442.85 126.95 C 443.1 127.2 443.36 127.44 443.61 127.7 C 450.3 134.21 458.02 139.32 466.57 142.95 C 475.69 146.82 485.37 148.79 495.36 148.82 C 495.45 148.82 495.52 148.82 495.61 148.82 C 495.7 148.82 495.78 148.82 495.87 148.82 C 505.85 148.79 515.54 146.82 524.66 142.95 C 533.54 139.19 541.53 133.82 548.38 126.95 C 549.08 126.25 549.75 125.55 550.42 124.83 C 551.11 124.09 551.79 123.32 552.44 122.56 C 557.38 116.77 561.38 110.29 564.36 103.23 C 568.29 94.04 570.26 84.26 570.26 74.19 C 570.26 64.11 568.29 54.34 564.39 45.14 Z M 424 72.7 C 424.36 55.38 430.88 39.55 441.48 27.34 C 442.06 27.65 442.64 27.95 443.25 28.25 C 449.13 31.19 455.84 33.58 463.08 35.35 C 459.63 46.5 457.72 59.31 457.58 72.7 L 424 72.7 Z M 547.7 25.05 C 547.36 25.23 547.02 25.41 546.67 25.58 C 540.93 28.46 534.38 30.78 527.27 32.52 C 525.97 28.72 524.49 25.14 522.82 21.81 C 519.38 14.92 515.35 9.49 510.82 5.66 C 509.94 4.92 509.06 4.25 508.17 3.65 C 523.61 6.38 537.38 14.08 547.7 25.05 Z M 497.12 39.1 C 506.96 39.01 516.49 37.95 525.29 36.02 C 528.69 46.93 530.57 59.52 530.7 72.7 L 497.12 72.7 L 497.12 39.1 Z M 497.12 112.25 C 506.64 112.34 515.85 113.35 524.35 115.19 C 523.12 118.74 521.72 122.12 520.15 125.23 C 513.87 137.79 505.75 145.03 497.12 145.77 L 497.12 112.25 Z M 497.12 109.28 L 497.12 75.68 L 530.69 75.68 C 530.55 88.86 528.67 101.43 525.27 112.35 C 516.49 110.43 506.96 109.37 497.12 109.28 Z M 533.67 75.68 L 567.26 75.68 C 566.9 93 560.38 108.83 549.78 121.06 C 549.2 120.74 548.61 120.44 548 120.14 C 542.12 117.2 535.44 114.82 528.18 113.04 C 531.64 101.86 533.55 89.05 533.67 75.68 Z M 533.67 72.7 C 533.54 59.31 531.64 46.5 528.18 35.35 C 535.42 33.58 542.12 31.19 548 28.25 C 548.6 27.95 549.2 27.64 549.78 27.34 C 560.38 39.55 566.9 55.38 567.26 72.7 L 533.67 72.7 Z M 520.15 23.14 C 521.72 26.26 523.11 29.62 524.35 33.19 C 515.85 35.02 506.64 36.02 497.12 36.13 L 497.12 2.6 C 505.75 3.37 513.87 10.58 520.15 23.14 Z M 483.08 3.65 C 482.18 4.25 481.3 4.92 480.43 5.66 C 475.93 9.49 471.88 14.92 468.43 21.81 C 466.78 25.14 465.28 28.72 463.99 32.52 C 456.88 30.78 450.33 28.46 444.58 25.58 C 444.24 25.4 443.9 25.23 443.55 25.05 C 453.88 14.08 467.64 6.38 483.08 3.65 Z M 465.97 112.35 C 462.57 101.43 460.69 88.86 460.55 75.68 L 494.14 75.68 L 494.14 109.28 C 484.3 109.37 474.76 110.43 465.97 112.35 Z M 494.14 112.25 L 494.14 145.76 C 485.51 145.01 477.39 137.79 471.11 125.23 C 469.54 122.12 468.15 118.76 466.91 115.19 C 475.4 113.35 484.61 112.35 494.14 112.25 Z M 460.55 72.7 C 460.69 59.52 462.57 46.95 465.97 36.02 C 474.76 37.95 484.28 39.01 494.14 39.1 L 494.14 72.7 L 460.55 72.7 Z M 457.58 75.68 C 457.72 89.05 459.61 101.86 463.08 113.03 C 455.84 114.8 449.13 117.19 443.25 120.13 C 442.66 120.43 442.06 120.74 441.48 121.04 C 430.88 108.83 424.36 93 424 75.68 L 457.58 75.68 Z M 444.58 122.8 C 450.33 119.92 456.88 117.59 463.99 115.86 C 465.28 119.65 466.76 123.23 468.43 126.56 C 471.88 133.46 475.93 138.89 480.43 142.71 C 481.3 143.44 482.2 144.12 483.08 144.73 C 467.63 141.98 453.88 134.28 443.54 123.32 C 443.88 123.16 444.24 122.98 444.58 122.8 Z M 494.14 36.13 C 484.61 36.04 475.4 35.02 466.91 33.19 C 467.22 32.29 467.54 31.43 467.87 30.56 C 468.85 27.96 469.93 25.49 471.11 23.16 C 477.39 10.58 485.51 3.37 494.14 2.6 L 494.14 36.13 Z M 508.18 144.73 C 509.08 144.12 509.96 143.44 510.84 142.71 C 515.35 138.89 519.38 133.46 522.84 126.56 C 524.49 123.23 525.99 119.65 527.29 115.86 C 534.39 117.59 540.94 119.92 546.69 122.8 C 547.03 122.98 547.38 123.16 547.72 123.34 C 537.38 134.29 523.61 142 508.18 144.73 Z" fill="#bac8d3" style="fill: light-dark(rgb(186, 200, 211), rgb(57, 69, 78));" stroke="none" pointer-events="all"/></g><g><g fill="#000000" style="fill: light-dark(rgb(0, 0, 0), rgb(237, 237, 237));" font-family="Verdana" text-anchor="middle" font-size="15px"><text x="495.63" y="169.82">Internet</text></g></g></g><g data-cell-id="-OQlE5UzZAIxYqtkla3L-16"><g transform="translate(0.5,0.5)"><path d="M 263.29 145.13 L 168.64 145.13 C 167.24 145.13 166.1 143.99 166.1 142.58 L 166.1 122.48 C 166.1 121.08 167.24 119.94 168.64 119.94 L 263.29 119.94 C 264.69 119.94 265.83 121.08 265.83 122.48 L 265.83 142.58 C 265.83 143.99 264.69 145.13 263.29 145.13 Z" fill="#ededed" style="fill: light-dark(rgb(237, 237, 237), rgb(33, 33, 33));" stroke="none" pointer-events="all"/><path d="M 258.48 132.18 C 258.48 133.87 257.12 135.23 255.43 135.23 C 253.74 135.23 252.38 133.87 252.38 132.18 C 252.38 130.49 253.74 129.13 255.43 129.13 C 257.12 129.13 258.48 130.49 258.48 132.18 Z M 244.19 129.13 C 242.5 129.13 241.13 130.49 241.13 132.18 C 241.13 133.87 242.5 135.23 244.19 135.23 C 245.88 135.23 247.24 133.87 247.24 132.18 C 247.24 130.49 245.88 129.13 244.19 129.13 Z M 232.94 129.13 C 231.25 129.13 229.89 130.49 229.89 132.18 C 229.89 133.87 231.25 135.23 232.94 135.23 C 234.63 135.23 235.99 133.87 235.99 132.18 C 235.99 130.49 234.63 129.13 232.94 129.13 Z" fill="#9da6a8" style="fill: light-dark(rgb(157, 166, 168), rgb(89, 97, 98));" stroke="none" pointer-events="all"/><path d="M 222.33 127.44 L 173.24 127.44 C 172.68 127.44 172.22 126.98 172.22 126.42 C 172.22 125.86 172.68 125.4 173.24 125.4 L 222.33 125.4 C 222.89 125.4 223.34 125.86 223.34 126.42 C 223.34 126.98 222.89 127.44 222.33 127.44 Z M 223.34 132.54 C 223.34 131.98 222.89 131.52 222.33 131.52 L 173.24 131.52 C 172.68 131.52 172.22 131.98 172.22 132.54 C 172.22 133.1 172.68 133.55 173.24 133.55 L 222.33 133.55 C 222.89 133.55 223.34 133.1 223.34 132.54 Z M 223.34 138.65 C 223.34 138.09 222.89 137.64 222.33 137.64 L 173.24 137.64 C 172.68 137.64 172.22 138.09 172.22 138.65 C 172.22 139.21 172.68 139.67 173.24 139.67 L 222.33 139.67 C 222.89 139.67 223.34 139.21 223.34 138.65 Z M 259.5 132.18 C 259.5 129.93 257.68 128.11 255.43 128.11 C 253.18 128.11 251.36 129.93 251.36 132.18 C 251.36 134.43 253.18 136.25 255.43 136.25 C 257.68 136.25 259.5 134.42 259.5 132.18 Z M 257.47 132.18 C 257.47 133.3 256.55 134.22 255.43 134.22 C 254.31 134.22 253.4 133.3 253.4 132.18 C 253.4 131.06 254.31 130.15 255.43 130.15 C 256.55 130.15 257.47 131.05 257.47 132.18 Z M 248.26 132.18 C 248.26 129.93 246.43 128.11 244.19 128.11 C 241.94 128.11 240.12 129.93 240.12 132.18 C 240.12 134.43 241.94 136.25 244.19 136.25 C 246.43 136.25 248.26 134.42 248.26 132.18 Z M 246.22 132.18 C 246.22 133.3 245.31 134.22 244.19 134.22 C 243.07 134.22 242.15 133.3 242.15 132.18 C 242.15 131.06 243.07 130.15 244.19 130.15 C 245.32 130.15 246.22 131.05 246.22 132.18 Z M 237.01 132.18 C 237.01 129.93 235.19 128.11 232.94 128.11 C 230.69 128.11 228.87 129.93 228.87 132.18 C 228.87 134.43 230.69 136.25 232.94 136.25 C 235.19 136.25 237.01 134.42 237.01 132.18 Z M 234.98 132.18 C 234.98 133.3 234.06 134.22 232.94 134.22 C 231.82 134.22 230.9 133.3 230.9 132.18 C 230.9 131.06 231.82 130.15 232.94 130.15 C 234.07 130.15 234.98 131.05 234.98 132.18 Z M 263.29 118.92 L 250.48 118.92 L 249.93 95.38 C 249.9 94.79 249.67 94.34 249.35 94.03 C 248.29 93 246.16 93.46 246.05 95.38 C 246.06 95.44 245.6 114.32 245.5 118.92 L 186.42 118.92 L 185.88 95.38 C 185.85 94.84 185.66 94.41 185.37 94.11 L 185.26 94 C 184.8 93.58 184.16 93.42 183.56 93.53 C 182.85 93.66 182.21 94.17 182.03 95.06 C 182.01 95.16 182 95.27 181.99 95.38 C 181.99 95.44 181.55 114.32 181.44 118.92 L 168.64 118.92 C 166.68 118.92 165.08 120.52 165.08 122.48 L 165.08 142.58 C 165.08 143.5 165.43 144.34 166.01 144.97 C 166.01 144.97 166.01 144.97 166.01 144.97 C 166.09 145.05 166.16 145.14 166.25 145.22 C 166.25 145.22 166.25 145.22 166.25 145.22 C 166.88 145.79 167.73 146.14 168.64 146.14 L 176.56 146.14 L 176.56 147.8 C 176.56 148.36 177.02 148.82 177.58 148.82 L 190.3 148.82 C 190.86 148.82 191.32 148.36 191.32 147.8 L 191.32 146.14 L 240.6 146.14 L 240.6 147.8 C 240.6 148.36 241.06 148.82 241.62 148.82 L 254.34 148.82 C 254.9 148.82 255.36 148.36 255.36 147.8 L 255.36 146.14 L 263.28 146.14 C 265.24 146.14 266.84 144.55 266.84 142.58 L 266.84 122.48 C 266.85 120.52 265.25 118.92 263.29 118.92 Z M 264.81 142.58 C 264.81 143.43 264.13 144.11 263.29 144.11 L 168.64 144.11 C 167.8 144.11 167.12 143.43 167.12 142.58 L 167.12 122.48 C 167.12 121.64 167.8 120.96 168.64 120.96 L 263.29 120.96 C 264.13 120.96 264.81 121.64 264.81 122.48 L 264.81 142.58 Z" fill="#000000" style="fill: light-dark(rgb(0, 0, 0), rgb(237, 237, 237));" stroke="none" pointer-events="all"/></g><g><g fill="#000000" style="fill: light-dark(rgb(0, 0, 0), rgb(237, 237, 237));" font-family="Verdana" text-anchor="middle" font-size="12px"><text x="215.96" y="166.82">Main home router</text></g></g></g><g data-cell-id="-OQlE5UzZAIxYqtkla3L-33"><g transform="translate(0.5,0.5)"><path d="M 531.12 321.28 L 434.1 321.28 C 432.96 321.28 432.03 320.35 432.03 319.21 L 432.03 306.83 C 432.03 305.69 432.96 304.76 434.1 304.76 L 531.12 304.76 C 532.26 304.76 533.19 305.69 533.19 306.83 L 533.19 319.21 C 533.19 320.36 532.26 321.28 531.12 321.28 Z M 533.19 298.52 L 533.19 286.13 C 533.19 284.99 532.26 284.06 531.12 284.06 L 434.1 284.06 C 432.96 284.06 432.03 284.99 432.03 286.13 L 432.03 298.52 C 432.03 299.65 432.96 300.58 434.1 300.58 L 531.12 300.58 C 532.26 300.58 533.19 299.65 533.19 298.52 Z M 533.19 339.92 L 533.19 327.54 C 533.19 326.4 532.26 325.47 531.12 325.47 L 434.1 325.47 C 432.96 325.47 432.03 326.4 432.03 327.54 L 432.03 339.92 C 432.03 341.06 432.96 341.99 434.1 341.99 L 531.12 341.99 C 532.26 341.99 533.19 341.06 533.19 339.92 Z" fill="#ededed" style="fill: light-dark(rgb(237, 237, 237), rgb(33, 33, 33));" stroke="none" pointer-events="all"/><path d="M 515.64 316.6 L 449.58 316.6 L 449.58 309.38 L 515.64 309.38 L 515.64 316.6 Z M 515.64 288.68 L 449.58 288.68 L 449.58 295.9 L 515.64 295.9 L 515.64 288.68 Z M 515.64 330.09 L 449.58 330.09 L 449.58 337.31 L 515.64 337.31 L 515.64 330.09 Z" fill="#9da6a8" style="fill: light-dark(rgb(157, 166, 168), rgb(89, 97, 98));" stroke="none" pointer-events="all"/><path d="M 531.12 303.7 L 434.1 303.7 C 432.39 303.7 431 305.09 431 306.8 L 431 319.18 C 431 320.04 431.35 320.81 431.91 321.37 C 432.47 321.93 433.24 322.28 434.1 322.28 L 531.12 322.28 C 532.83 322.28 534.22 320.89 534.22 319.18 L 534.22 306.8 C 534.22 305.09 532.83 303.7 531.12 303.7 Z M 532.16 319.18 C 532.16 319.75 531.69 320.22 531.12 320.22 L 527.51 320.22 L 515.64 316.6 L 449.58 316.6 L 448.25 317.01 L 437.71 320.22 L 434.1 320.22 C 433.53 320.22 433.06 319.75 433.06 319.18 L 433.06 306.8 C 433.06 306.23 433.53 305.76 434.1 305.76 L 437.71 305.76 L 449.58 309.38 L 515.64 309.38 L 527.51 305.76 L 531.12 305.76 C 531.69 305.76 532.16 306.23 532.16 306.8 L 532.16 319.18 Z M 533.33 283.93 L 533.29 283.89 C 532.73 283.34 531.97 283 531.12 283 L 434.1 283 C 432.39 283 431 284.39 431 286.1 L 431 298.49 C 431 299.31 431.33 300.06 431.86 300.62 L 431.96 300.73 C 432.52 301.26 433.27 301.58 434.1 301.58 L 531.12 301.58 C 532.83 301.58 534.22 300.19 534.22 298.49 L 534.22 286.1 C 534.22 285.25 533.88 284.49 533.33 283.93 Z M 532.16 298.49 C 532.16 299.05 531.69 299.52 531.12 299.52 L 527.51 299.52 L 515.64 295.9 L 449.58 295.9 L 437.71 299.52 L 434.1 299.52 C 433.53 299.52 433.06 299.05 433.06 298.49 L 433.06 286.1 C 433.06 285.53 433.53 285.06 434.1 285.06 L 437.71 285.06 L 438.12 285.19 L 449.58 288.68 L 515.64 288.68 L 527.51 285.06 L 531.12 285.06 C 531.69 285.06 532.16 285.53 532.16 286.1 L 532.16 298.49 Z M 531.12 324.41 L 434.1 324.41 C 432.39 324.41 431 325.8 431 327.5 L 431 339.89 C 431 340.74 431.34 341.49 431.89 342.06 L 431.94 342.11 C 432.5 342.66 433.26 343 434.11 343 L 531.13 343 C 532.84 343 534.23 341.61 534.23 339.9 L 534.23 327.51 C 534.22 325.79 532.83 324.41 531.12 324.41 Z M 532.16 339.89 C 532.16 340.46 531.69 340.92 531.12 340.92 L 527.51 340.92 L 515.64 337.31 L 449.58 337.31 L 437.71 340.92 L 434.1 340.92 C 433.53 340.92 433.06 340.46 433.06 339.89 L 433.06 327.5 C 433.06 326.94 433.53 326.47 434.1 326.47 L 437.71 326.47 L 440.43 327.3 L 449.58 330.09 L 515.64 330.09 L 527.51 326.47 L 531.12 326.47 C 531.69 326.47 532.16 326.94 532.16 327.5 L 532.16 339.89 Z M 441.02 312.99 C 441.02 314.13 440.09 315.05 438.96 315.05 C 437.82 315.05 436.89 314.13 436.89 312.99 C 436.89 311.85 437.82 310.92 438.96 310.92 C 440.09 310.92 441.02 311.85 441.02 312.99 Z M 438.96 290.23 C 437.82 290.23 436.89 291.16 436.89 292.29 C 436.89 293.43 437.82 294.36 438.96 294.36 C 440.09 294.36 441.02 293.43 441.02 292.29 C 441.02 291.16 440.1 290.23 438.96 290.23 Z M 438.96 331.63 C 437.82 331.63 436.89 332.56 436.89 333.7 C 436.89 334.83 437.82 335.76 438.96 335.76 C 440.09 335.76 441.02 334.83 441.02 333.7 C 441.02 332.56 440.1 331.63 438.96 331.63 Z" fill="#000000" style="fill: light-dark(rgb(0, 0, 0), rgb(237, 237, 237));" stroke="none" pointer-events="all"/></g><g style="filter: drop-shadow(light-dark(rgba(0, 0, 0, 0.25), rgba(237, 237, 237, 0.25)) 2px 3px 2px);"><g fill="#000000" style="fill: light-dark(rgb(0, 0, 0), rgb(237, 237, 237));" font-family="Verdana" text-anchor="middle" font-size="17px"><text x="482.62" y="366"><tspan>Proxmox server</tspan></text></g></g></g><g data-cell-id="-OQlE5UzZAIxYqtkla3L-37"><g transform="translate(0.5,0.5)"><path d="M 281 363 L 228 363 L 321 363 L 321 323 L 424.63 323" fill="none" stroke="#0b4d6a" style="stroke: light-dark(rgb(11, 77, 106), rgb(135, 192, 217)); animation: 500ms linear infinite ge-flow-animation--jT4Sj8HCF1u66P0ZHjW; stroke-dashoffset: 16px;" stroke-miterlimit="10" pointer-events="stroke" stroke-dasharray="8"/><path d="M 429.88 323 L 422.88 326.5 L 424.63 323 L 422.88 319.5 Z" fill="#0b4d6a" style="fill: light-dark(rgb(11, 77, 106), rgb(135, 192, 217)); stroke: light-dark(rgb(11, 77, 106), rgb(135, 192, 217));" stroke="#0b4d6a" stroke-miterlimit="10" pointer-events="all"/></g><g><g><switch><foreignObject style="overflow: visible; text-align: left;" pointer-events="none" width="100%" height="100%" requiredFeatures="http://www.w3.org/TR/SVG11/feature#Extensibility"><div xmlns="http://www.w3.org/1999/xhtml" style="display: flex; align-items: unsafe center; justify-content: unsafe center; width: 1px; height: 1px; padding-top: 329px; margin-left: 316px;"><div style="box-sizing: border-box; font-size: 0; text-align: center; color: #FF005D; background-color: #ffffff; "><div style="display: inline-block; font-size: 14px; font-family: Verdana; color: light-dark(#FF005D, #EDEDED); line-height: 1.2; pointer-events: all; background-color: light-dark(#ffffff, var(--ge-dark-color, #121212)); white-space: nowrap; ">vmbr0</div></div></div></foreignObject><text x="316" y="333" fill="light-dark(#FF005D,#EDEDED)" font-family="Verdana" font-size="14px" text-anchor="middle">vmbr0</text></switch></g></g></g><g data-cell-id="-OQlE5UzZAIxYqtkla3L-40"><g transform="translate(0.5,0.5)"><path d="M 165.52 517.87 C 165.52 517.87 165.52 517.87 165.52 517.87 L 150.68 517.87 C 150.07 517.87 149.57 518.37 149.57 518.98 L 149.57 530.85 C 149.57 531.46 150.07 531.96 150.68 531.96 L 156.84 531.96 C 156.87 531.75 156.9 531.55 156.93 531.34 C 157.08 530.49 157.35 529.47 157.84 528.76 C 158.04 529.89 158.47 531.02 159.14 531.96 L 160.64 531.96 C 160.38 529.4 160.53 526.8 161.31 524.33 C 162.06 521.91 163.56 519.53 165.52 517.87 L 165.52 517.87 Z M 161.66 544.09 C 158.74 541.57 156.94 537.99 156.77 534.18 L 148.34 534.18 C 150.67 539.57 155.77 543.1 161.68 544.21 C 161.75 544.21 161.78 544.21 161.78 544.19 C 161.78 544.16 161.69 544.12 161.66 544.09 Z M 173.62 534.18 C 173.85 537.92 172.59 541.79 169.71 544.26 C 169.71 544.26 169.7 544.27 169.7 544.27 C 175.58 543.25 180.84 539.39 183.69 534.18 L 173.62 534.18 Z M 200.59 534.18 L 200.54 534.18 C 201.15 534.18 201.65 534.68 201.65 535.29 L 201.65 547.17 C 201.65 547.78 201.15 548.28 200.54 548.28 L 200.59 548.28 C 201.2 548.28 201.7 547.78 201.7 547.17 L 201.7 535.29 C 201.7 534.68 201.21 534.18 200.59 534.18 Z M 182.47 517.87 L 167.03 517.87 C 166.86 520.39 167.38 522.67 168.88 524.81 C 170.66 527.36 172.55 528.74 173.29 531.96 L 182.47 531.96 C 183.08 531.96 183.58 531.46 183.58 530.85 L 183.58 518.98 C 183.58 518.37 183.08 517.87 182.47 517.87 Z M 128.05 501.54 L 114.37 501.54 C 113.76 501.54 113.26 502.04 113.26 502.65 L 113.26 514.52 C 113.26 515.14 113.76 515.63 114.37 515.63 L 128.05 515.63 C 128.66 515.63 129.16 515.14 129.16 514.52 L 129.16 502.65 C 129.16 502.04 128.66 501.54 128.05 501.54 Z M 218.71 517.87 L 186.91 517.87 C 186.89 517.87 186.88 517.87 186.86 517.87 C 186.35 517.89 185.93 518.27 185.83 518.75 C 185.81 518.82 185.8 518.9 185.8 518.98 L 185.8 530.85 C 185.8 531.46 186.3 531.96 186.91 531.96 L 218.7 531.96 C 219.31 531.96 219.81 531.46 219.81 530.85 L 219.81 518.98 C 219.82 518.37 219.32 517.87 218.71 517.87 Z M 146.16 485.22 L 114.37 485.22 C 113.76 485.22 113.26 485.72 113.26 486.33 L 113.26 498.21 C 113.26 498.82 113.76 499.32 114.37 499.32 L 146.16 499.32 C 146.78 499.32 147.27 498.82 147.27 498.21 L 147.27 486.33 C 147.27 485.72 146.78 485.22 146.16 485.22 Z M 128.07 534.18 L 114.4 534.18 C 113.79 534.18 113.29 534.68 113.29 535.29 L 113.29 547.17 C 113.29 547.78 113.79 548.28 114.4 548.28 L 128.07 548.28 C 128.68 548.28 129.18 547.78 129.18 547.17 L 129.18 535.29 C 129.18 534.68 128.68 534.18 128.07 534.18 Z M 218.68 501.54 L 205.01 501.54 C 204.4 501.54 203.9 502.04 203.9 502.65 L 203.9 514.52 C 203.9 515.14 204.4 515.63 205.01 515.63 L 218.71 515.63 C 219.31 515.62 219.8 515.12 219.8 514.52 L 219.8 502.65 C 219.79 502.04 219.29 501.54 218.68 501.54 Z M 218.68 485.22 L 186.89 485.22 C 186.28 485.22 185.78 485.72 185.78 486.33 L 185.78 498.21 C 185.78 498.82 186.28 499.32 186.89 499.32 L 218.68 499.32 C 219.29 499.32 219.79 498.82 219.79 498.21 L 219.79 486.33 C 219.79 485.72 219.29 485.22 218.68 485.22 Z M 218.67 534.18 L 204.99 534.18 C 204.38 534.18 203.88 534.68 203.88 535.29 L 203.88 547.17 C 203.88 547.78 204.38 548.28 204.99 548.28 L 218.67 548.28 C 219.28 548.28 219.78 547.78 219.78 547.17 L 219.78 535.29 C 219.78 534.68 219.28 534.18 218.67 534.18 Z M 146.19 517.87 L 114.37 517.87 C 113.78 517.88 113.29 518.38 113.29 518.98 L 113.29 530.85 C 113.29 531.46 113.79 531.96 114.4 531.96 L 146.19 531.96 C 146.8 531.96 147.3 531.46 147.3 530.85 L 147.3 518.98 C 147.3 518.37 146.8 517.87 146.19 517.87 Z M 164.34 501.54 L 132.55 501.54 C 131.93 501.54 131.44 502.04 131.44 502.65 L 131.44 514.52 C 131.44 515.14 131.93 515.63 132.55 515.63 L 164.34 515.63 C 164.95 515.63 165.45 515.14 165.45 514.52 L 165.45 502.65 C 165.45 502.04 164.95 501.54 164.34 501.54 Z M 200.57 501.54 L 168.78 501.54 C 168.17 501.54 167.67 502.04 167.67 502.65 L 167.67 514.52 C 167.67 515.14 168.17 515.63 168.78 515.63 L 200.57 515.63 C 201.18 515.63 201.68 515.14 201.68 514.52 L 201.68 502.65 C 201.68 502.04 201.18 501.54 200.57 501.54 Z M 182.45 485.22 L 150.66 485.22 C 150.05 485.22 149.55 485.72 149.55 486.33 L 149.55 498.21 C 149.55 498.82 150.05 499.32 150.66 499.32 L 182.45 499.32 C 183.06 499.32 183.56 498.82 183.56 498.21 L 183.56 486.33 C 183.56 485.72 183.06 485.22 182.45 485.22 Z M 201.66 535.29 L 201.66 547.17 C 201.66 547.78 201.17 548.28 200.55 548.28 L 168.8 548.28 C 168.19 548.28 167.69 547.78 167.69 547.17 L 167.69 544.54 L 167.64 544.54 C 167.08 544.6 166.49 544.62 165.91 544.62 C 165.77 544.62 165.61 544.62 165.47 544.62 L 165.47 547.17 C 165.47 547.78 164.97 548.28 164.36 548.28 L 132.57 548.28 C 131.96 548.28 131.46 547.78 131.46 547.17 L 131.46 535.29 C 131.46 534.68 131.96 534.18 132.57 534.18 L 148.34 534.18 C 150.67 539.57 155.77 543.1 161.68 544.21 C 161.75 544.21 161.78 544.21 161.78 544.19 C 161.79 544.16 161.7 544.12 161.67 544.07 C 158.75 541.55 156.95 537.98 156.78 534.17 L 156.78 534.17 C 156.74 533.44 156.77 532.7 156.85 531.95 L 156.85 531.95 C 156.88 531.74 156.91 531.54 156.94 531.33 C 157.09 530.48 157.36 529.45 157.85 528.74 C 158.05 529.88 158.49 531.01 159.15 531.95 L 159.15 531.95 C 159.61 532.59 160.17 533.14 160.85 533.54 C 160.76 533.01 160.69 532.49 160.65 531.95 L 160.65 531.95 C 160.4 529.39 160.54 526.79 161.32 524.32 C 162.07 521.9 163.57 519.51 165.53 517.84 L 165.53 517.84 C 165.76 517.66 165.99 517.48 166.22 517.3 C 166.52 517.08 166.86 516.88 167.18 516.69 C 167.12 517.08 167.08 517.47 167.04 517.84 C 166.87 520.36 167.39 522.65 168.89 524.79 C 170.67 527.33 172.56 528.72 173.3 531.94 C 173.32 532 173.33 532.06 173.35 532.12 C 173.49 532.78 173.58 533.47 173.63 534.16 C 173.86 537.9 172.61 541.77 169.72 544.24 C 169.72 544.24 169.71 544.25 169.71 544.25 C 175.59 543.23 180.85 539.37 183.71 534.16 L 200.57 534.16 C 201.17 534.18 201.66 534.68 201.66 535.29 Z" fill="#ededed" style="fill: light-dark(rgb(237, 237, 237), rgb(33, 33, 33));" stroke="none" pointer-events="all"/><path d="M 222 518.98 C 222 518.11 221.68 517.33 221.13 516.73 C 221.66 516.15 221.97 515.38 221.97 514.54 L 221.97 502.65 C 221.97 501.79 221.64 501.02 221.11 500.43 C 221.64 499.84 221.97 499.06 221.97 498.21 L 221.97 486.33 C 221.97 485.42 221.6 484.59 221 483.99 L 220.98 483.97 C 220.38 483.37 219.56 483 218.64 483 L 186.85 483 C 185.99 483 185.21 483.32 184.63 483.85 C 184.04 483.32 183.26 483 182.41 483 L 150.62 483 C 149.75 483 148.96 483.33 148.36 483.88 C 147.77 483.33 146.99 483 146.12 483 L 114.33 483 C 112.5 483 111 484.5 111 486.33 L 111 498.21 C 111 499.06 111.32 499.84 111.85 500.43 C 111.32 501.02 111 501.8 111 502.65 L 111 514.52 C 111 515.38 111.33 516.17 111.87 516.76 C 111.34 517.34 111.03 518.12 111.03 518.97 L 111.03 530.84 C 111.03 531.7 111.36 532.47 111.89 533.06 C 111.36 533.65 111.03 534.43 111.03 535.28 L 111.03 547.16 C 111.03 548.07 111.4 548.89 111.99 549.49 L 112.03 549.54 C 112.63 550.12 113.45 550.49 114.36 550.49 L 128.04 550.49 C 128.9 550.49 129.69 550.16 130.28 549.61 C 130.87 550.16 131.67 550.49 132.52 550.49 L 164.31 550.49 C 165.17 550.49 165.94 550.17 166.53 549.64 C 167.12 550.17 167.9 550.49 168.75 550.49 L 200.54 550.49 C 201.4 550.49 202.18 550.17 202.76 549.64 C 203.35 550.17 204.13 550.49 204.98 550.49 L 218.67 550.49 C 220.5 550.49 222 548.99 222 547.16 L 222 535.28 C 222 534.43 221.68 533.65 221.15 533.06 C 221.68 532.47 222 531.7 222 530.84 L 222 518.98 Z M 185.74 486.33 C 185.74 485.72 186.24 485.22 186.85 485.22 L 218.64 485.22 C 219.25 485.22 219.75 485.72 219.75 486.33 L 219.75 498.21 C 219.75 498.82 219.25 499.32 218.64 499.32 L 186.85 499.32 C 186.24 499.32 185.74 498.82 185.74 498.21 L 185.74 486.33 Z M 219.75 502.65 L 219.75 514.52 C 219.75 515.12 219.27 515.62 218.67 515.63 L 204.96 515.63 C 204.35 515.63 203.85 515.14 203.85 514.52 L 203.85 502.65 C 203.85 502.04 204.35 501.54 204.96 501.54 L 218.64 501.54 C 219.26 501.54 219.75 502.04 219.75 502.65 Z M 200.52 501.54 C 201.13 501.54 201.63 502.04 201.63 502.65 L 201.63 514.52 C 201.63 515.14 201.13 515.63 200.52 515.63 L 185.1 515.63 C 184.29 512.89 183.06 510.3 181.43 508 L 180.42 506.71 C 180.61 507.99 180.74 509.34 180.76 510.7 C 180.79 512.37 180.64 514.06 180.19 515.63 L 177.99 515.63 C 177.81 514.61 177.57 513.59 177.23 512.6 C 176.26 509.76 174.46 507.44 172.59 505.15 C 171.63 503.96 170.66 502.77 169.79 501.53 L 200.52 501.53 Z M 179.28 517.87 C 179.03 518.32 178.74 518.75 178.42 519.18 C 178.38 518.74 178.33 518.3 178.29 517.87 L 179.28 517.87 Z M 149.51 486.33 C 149.51 485.72 150.01 485.22 150.62 485.22 L 182.41 485.22 C 183.02 485.22 183.52 485.72 183.52 486.33 L 183.52 498.21 C 183.52 498.82 183.02 499.32 182.41 499.32 L 168.36 499.32 C 166.57 496.12 165.43 492.4 167.1 488.87 C 163.25 490.37 160.31 493.55 159.14 497.53 C 158.96 498.13 158.84 498.72 158.75 499.32 L 150.62 499.32 C 150.01 499.32 149.51 498.82 149.51 498.21 L 149.51 486.33 Z M 158.52 501.54 C 158.44 502.86 158.42 504.19 158.29 505.52 C 158.24 506.01 158.18 506.5 158.09 506.99 C 157.62 509.61 156.68 512.34 154.75 514.24 C 154.72 513.22 154.71 512.24 154.48 511.24 C 154.27 510.27 153.88 509.34 153.38 508.48 C 152.71 507.32 151.83 506.28 150.82 505.44 C 150.73 505.37 149.92 504.71 149.85 504.78 C 150.79 507.65 150.08 510.43 149.21 513.15 C 148.94 513.98 148.66 514.8 148.4 515.62 L 132.5 515.62 C 131.89 515.62 131.39 515.12 131.39 514.51 L 131.39 502.65 C 131.39 502.04 131.89 501.54 132.5 501.54 L 158.52 501.54 Z M 113.22 486.33 C 113.22 485.72 113.72 485.22 114.33 485.22 L 146.12 485.22 C 146.73 485.22 147.23 485.72 147.23 486.33 L 147.23 498.21 C 147.23 498.82 146.73 499.32 146.12 499.32 L 114.33 499.32 C 113.72 499.32 113.22 498.82 113.22 498.21 L 113.22 486.33 Z M 113.22 502.65 C 113.22 502.04 113.72 501.54 114.33 501.54 L 128.01 501.54 C 128.62 501.54 129.12 502.04 129.12 502.65 L 129.12 514.52 C 129.12 515.14 128.62 515.63 128.01 515.63 L 114.33 515.63 C 113.72 515.63 113.22 515.14 113.22 514.52 L 113.22 502.65 Z M 129.15 547.17 C 129.15 547.78 128.65 548.28 128.04 548.28 L 114.35 548.28 C 113.74 548.28 113.24 547.78 113.24 547.17 L 113.24 535.29 C 113.24 534.68 113.74 534.18 114.35 534.18 L 128.03 534.18 C 128.64 534.18 129.14 534.68 129.14 535.29 L 129.14 547.17 Z M 114.35 531.96 C 113.74 531.96 113.24 531.46 113.24 530.85 L 113.24 518.98 C 113.24 518.38 113.73 517.88 114.33 517.87 L 146.15 517.87 C 146.76 517.87 147.26 518.37 147.26 518.98 L 147.26 520.29 C 146.65 523.68 146.6 527.07 147.26 530.61 L 147.26 530.86 C 147.26 531.48 146.76 531.97 146.15 531.97 L 114.35 531.97 Z M 201.66 547.17 C 201.66 547.78 201.17 548.28 200.55 548.28 L 168.76 548.28 C 168.15 548.28 167.65 547.78 167.65 547.17 L 167.65 544.55 C 167.09 544.61 166.5 544.63 165.92 544.63 C 165.78 544.63 165.62 544.63 165.48 544.63 L 165.48 547.18 C 165.48 547.79 164.98 548.29 164.37 548.29 L 132.52 548.29 C 131.91 548.29 131.41 547.79 131.41 547.18 L 131.41 535.3 C 131.41 534.69 131.91 534.19 132.52 534.19 L 148.33 534.19 C 150.66 539.58 155.76 543.11 161.67 544.22 C 161.74 544.22 161.77 544.22 161.77 544.2 C 161.78 544.17 161.69 544.13 161.66 544.09 C 158.74 541.57 156.94 537.99 156.77 534.18 L 156.77 534.18 C 156.73 533.45 156.75 532.71 156.84 531.96 L 156.84 531.96 C 156.87 531.75 156.9 531.55 156.93 531.34 C 157.08 530.49 157.35 529.47 157.84 528.76 C 158.04 529.89 158.47 531.02 159.14 531.96 L 159.14 531.96 C 159.6 532.6 160.16 533.15 160.84 533.55 C 160.75 533.02 160.68 532.5 160.64 531.96 L 160.64 531.96 C 160.38 529.4 160.53 526.8 161.31 524.33 C 162.06 521.91 163.56 519.52 165.52 517.86 L 165.52 517.86 C 165.75 517.67 165.98 517.49 166.21 517.31 C 166.51 517.09 166.84 516.89 167.17 516.7 C 167.11 517.09 167.07 517.48 167.03 517.86 C 166.86 520.37 167.38 522.66 168.88 524.8 C 170.66 527.35 172.55 528.73 173.29 531.95 C 173.3 532.01 173.32 532.07 173.34 532.13 C 173.48 532.8 173.57 533.48 173.62 534.17 C 173.85 537.91 172.59 541.78 169.71 544.25 C 169.71 544.25 169.7 544.26 169.7 544.26 C 175.58 543.24 180.84 539.38 183.69 534.17 L 200.55 534.17 C 201.17 534.17 201.66 534.67 201.66 535.28 L 201.66 547.17 Z M 219.78 547.17 C 219.78 547.78 219.28 548.28 218.67 548.28 L 204.99 548.28 C 204.38 548.28 203.88 547.78 203.88 547.17 L 203.88 535.29 C 203.88 534.68 204.38 534.18 204.99 534.18 L 218.67 534.18 C 219.28 534.18 219.78 534.68 219.78 535.29 L 219.78 547.17 Z M 219.78 530.85 C 219.78 531.46 219.28 531.96 218.67 531.96 L 186.88 531.96 C 186.27 531.96 185.77 531.46 185.77 530.85 L 185.77 528.23 C 185.78 528.16 185.79 528.09 185.81 528.01 C 186.36 524.97 186.36 521.82 185.84 518.74 C 185.84 518.71 185.83 518.68 185.83 518.65 C 185.96 518.2 186.38 517.87 186.87 517.86 C 186.88 517.86 186.88 517.86 186.89 517.86 L 218.67 517.86 C 219.28 517.86 219.78 518.35 219.78 518.97 L 219.78 530.85 Z" fill="#000000" style="fill: light-dark(rgb(0, 0, 0), rgb(237, 237, 237));" stroke="none" pointer-events="all"/></g><g><g fill="#000000" style="fill: light-dark(rgb(0, 0, 0), rgb(237, 237, 237));" font-family="Verdana" text-anchor="middle" font-size="13px"><text x="166.5" y="569.49">PfSense Firewall</text></g></g></g><g data-cell-id="-OQlE5UzZAIxYqtkla3L-51"><g><rect x="450.26" y="573" width="270" height="170" fill="#dae8fc" style="fill: light-dark(rgb(218, 232, 252), rgb(29, 41, 59)); stroke: light-dark(rgb(108, 142, 191), rgb(92, 121, 163));" stroke="#6c8ebf" stroke-width="2" pointer-events="all"/></g><g><g fill="#000000" style="fill: light-dark(rgb(0, 0, 0), rgb(255, 255, 255));" font-family="Helvetica" text-anchor="middle" font-size="13px"><rect fill="#EA6B66" stroke="none" x="532" y="581" width="107" height="48" style="fill: light-dark(rgb(234, 107, 102), rgb(208, 99, 95));" stroke-width="0"/><text x="585.26" y="592">Victims</text><text x="585.26" y="608">Network segment </text><text x="585.26" y="624">10.0.0.0/24</text></g></g><g data-cell-id="-OQlE5UzZAIxYqtkla3L-23"><g transform="translate(0.5,0.5)"><rect x="660.26" y="573" width="50" height="50" fill="none" stroke="none" pointer-events="all"/><path d="M 688.21 591.75 L 685.15 591.75 L 685.1 602.08 L 687.03 602.08 L 687 593.84 L 689.1 602.08 L 691.08 602.08 L 693.18 593.84 L 693.18 602.08 L 695.11 602.08 L 695.08 591.75 L 691.99 591.75 L 690.14 598.9 Z M 676.59 591.75 L 674.34 591.75 L 678.04 602.08 L 680.28 602.08 L 683.97 591.75 L 681.8 591.75 L 679.23 599.48 Z M 663.78 573 C 661.85 573 660.26 574.58 660.26 576.51 L 660.26 619.49 C 660.26 621.42 661.85 623 663.78 623 L 706.75 623 C 708.68 623 710.26 621.42 710.26 619.49 L 710.26 576.51 C 710.26 574.58 708.68 573 706.75 573 Z M 663.78 574.8 L 706.75 574.8 C 707.71 574.8 708.46 575.55 708.46 576.51 L 708.46 619.49 C 708.46 620.45 707.71 621.2 706.75 621.2 L 663.78 621.2 C 662.81 621.2 662.07 620.45 662.07 619.49 L 662.07 576.51 C 662.07 575.55 662.81 574.8 663.78 574.8 Z" fill="#434445" style="fill: light-dark(rgb(67, 68, 69), rgb(178, 179, 180));" stroke="none" pointer-events="all"/></g><g><g><switch><foreignObject style="overflow: visible; text-align: left;" pointer-events="none" width="100%" height="100%" requiredFeatures="http://www.w3.org/TR/SVG11/feature#Extensibility"><div xmlns="http://www.w3.org/1999/xhtml" style="display: flex; align-items: unsafe flex-start; justify-content: unsafe center; width: 1px; height: 1px; padding-top: 630px; margin-left: 685px;"><div style="box-sizing: border-box; font-size: 0; text-align: center; color: #000000; "><div style="display: inline-block; font-size: 12px; font-family: Verdana; color: light-dark(#000000, #ededed); line-height: 1.2; pointer-events: all; white-space: nowrap; ">Win 10</div></div></div></foreignObject><text x="685" y="642" fill="#000000" font-family="Verdana" font-size="12px" text-anchor="middle">Win 10</text></switch></g></g></g><g data-cell-id="-OQlE5UzZAIxYqtkla3L-24"><g transform="translate(0.5,0.5)"><rect x="550.26" y="663" width="50" height="50" fill="none" stroke="none" pointer-events="all"/><path d="M 578.2 681.75 L 575.14 681.75 L 575.09 692.08 L 577.03 692.08 L 577 683.84 L 579.1 692.08 L 581.07 692.08 L 583.17 683.84 L 583.18 692.08 L 585.1 692.08 L 585.08 681.75 L 581.98 681.75 L 580.14 688.9 Z M 566.59 681.75 L 564.33 681.75 L 568.03 692.08 L 570.28 692.08 L 573.96 681.75 L 571.79 681.75 L 569.23 689.48 Z M 553.77 663 C 551.84 663 550.26 664.58 550.26 666.51 L 550.26 709.49 C 550.26 711.42 551.84 713 553.77 713 L 596.74 713 C 598.67 713 600.26 711.42 600.26 709.49 L 600.26 666.51 C 600.26 664.58 598.67 663 596.74 663 Z M 553.77 664.8 L 596.74 664.8 C 597.71 664.8 598.45 665.55 598.45 666.51 L 598.45 709.49 C 598.45 710.45 597.71 711.2 596.74 711.2 L 553.77 711.2 C 552.81 711.2 552.06 710.45 552.06 709.49 L 552.06 666.51 C 552.06 665.55 552.81 664.8 553.77 664.8 Z" fill="#434445" style="fill: light-dark(rgb(67, 68, 69), rgb(178, 179, 180));" stroke="none" pointer-events="all"/></g><g><g><switch><foreignObject style="overflow: visible; text-align: left;" pointer-events="none" width="100%" height="100%" requiredFeatures="http://www.w3.org/TR/SVG11/feature#Extensibility"><div xmlns="http://www.w3.org/1999/xhtml" style="display: flex; align-items: unsafe flex-start; justify-content: unsafe center; width: 1px; height: 1px; padding-top: 720px; margin-left: 575px;"><div style="box-sizing: border-box; font-size: 0; text-align: center; color: #000000; "><div style="display: inline-block; font-size: 12px; font-family: Verdana; color: light-dark(#000000, #ededed); line-height: 1.2; pointer-events: all; white-space: nowrap; ">Win 11</div></div></div></foreignObject><text x="575" y="732" fill="#000000" font-family="Verdana" font-size="12px" text-anchor="middle">Win 11</text></switch></g></g></g><g data-cell-id="-OQlE5UzZAIxYqtkla3L-25"><g transform="translate(0.5,0.5)"><rect x="455.26" y="573" width="50" height="50" fill="none" stroke="none" pointer-events="all"/><path d="M 483.21 591.75 L 480.15 591.75 L 480.09 602.08 L 482.03 602.08 L 482 593.84 L 484.1 602.08 L 486.08 602.08 L 488.18 593.84 L 488.18 602.08 L 490.1 602.08 L 490.08 591.75 L 486.98 591.75 L 485.14 598.9 Z M 471.59 591.75 L 469.34 591.75 L 473.04 602.08 L 475.28 602.08 L 478.96 591.75 L 476.8 591.75 L 474.23 599.48 Z M 458.77 573 C 456.84 573 455.26 574.58 455.26 576.51 L 455.26 619.49 C 455.26 621.42 456.84 623 458.78 623 L 501.75 623 C 503.68 623 505.26 621.42 505.26 619.49 L 505.26 576.51 C 505.26 574.58 503.68 573 501.75 573 Z M 458.77 574.8 L 501.75 574.8 C 502.71 574.8 503.46 575.55 503.46 576.51 L 503.46 619.49 C 503.46 620.45 502.71 621.2 501.75 621.2 L 458.77 621.2 C 457.81 621.2 457.06 620.45 457.06 619.49 L 457.06 576.51 C 457.06 575.55 457.81 574.8 458.77 574.8 Z" fill="#434445" style="fill: light-dark(rgb(67, 68, 69), rgb(178, 179, 180));" stroke="none" pointer-events="all"/></g><g><g><switch><foreignObject style="overflow: visible; text-align: left;" pointer-events="none" width="100%" height="100%" requiredFeatures="http://www.w3.org/TR/SVG11/feature#Extensibility"><div xmlns="http://www.w3.org/1999/xhtml" style="display: flex; align-items: unsafe flex-start; justify-content: unsafe center; width: 1px; height: 1px; padding-top: 630px; margin-left: 480px;"><div style="box-sizing: border-box; font-size: 0; text-align: center; color: #000000; "><div style="display: inline-block; font-size: 12px; font-family: Verdana; color: light-dark(#000000, #ededed); line-height: 1.2; pointer-events: all; white-space: nowrap; ">Kiopttrix</div></div></div></foreignObject><text x="480" y="642" fill="#000000" font-family="Verdana" font-size="12px" text-anchor="middle">Kiopttrix</text></switch></g></g></g></g><g data-cell-id="-OQlE5UzZAIxYqtkla3L-62"><g><rect x="0.97" y="833" width="240" height="170" fill="#f8cecc" style="fill: light-dark(rgb(248, 206, 204), rgb(81, 45, 43)); stroke: light-dark(rgb(184, 84, 80), rgb(215, 129, 126));" stroke="#b85450" stroke-width="2" pointer-events="all"/></g><g><g><switch><foreignObject style="overflow: visible; text-align: left;" pointer-events="none" width="100%" height="100%" requiredFeatures="http://www.w3.org/TR/SVG11/feature#Extensibility"><div xmlns="http://www.w3.org/1999/xhtml" style="display: flex; align-items: unsafe flex-start; justify-content: unsafe center; width: 1px; height: 1px; padding-top: 840px; margin-left: 121px;"><div style="box-sizing: border-box; font-size: 0; text-align: center; color: #000000; background-color: #EA6B66; border-color: #3333FF; "><div style="display: inline-block; font-size: 13px; font-family: Helvetica; color: light-dark(#000000, #ffffff); line-height: 1.2; pointer-events: all; background-color: light-dark(#EA6B66, #d0635f); border-width: 1px; border-style: solid; border-color: inherit; border: 1px solid light-dark(#3333FF, #a8a8ff); white-space: nowrap; "><div>Attackers</div><div>Network Seg</div><div>192.168.1.0/24</div></div></div></div></foreignObject><text x="121" y="853" fill="light-dark(#000000, #ffffff)" font-family="Helvetica" font-size="13px" text-anchor="middle">Attackers...</text></switch></g></g><g data-cell-id="-OQlE5UzZAIxYqtkla3L-21"><g transform="translate(0.5,0.5)"><rect x="180.97" y="833" width="50" height="50" fill="none" stroke="none" pointer-events="all"/><path d="M 208.92 851.75 L 205.86 851.75 L 205.8 862.08 L 207.74 862.08 L 207.71 853.84 L 209.81 862.08 L 211.78 862.08 L 213.89 853.84 L 213.89 862.08 L 215.81 862.08 L 215.79 851.75 L 212.69 851.75 L 210.85 858.9 Z M 197.3 851.75 L 195.05 851.75 L 198.75 862.08 L 200.99 862.08 L 204.67 851.75 L 202.5 851.75 L 199.94 859.48 Z M 184.48 833 C 182.55 833 180.97 834.58 180.97 836.51 L 180.97 879.49 C 180.97 881.42 182.55 883 184.49 883 L 227.46 883 C 229.39 883 230.97 881.42 230.97 879.49 L 230.97 836.51 C 230.97 834.58 229.39 833 227.46 833 Z M 184.48 834.8 L 227.46 834.8 C 228.42 834.8 229.17 835.55 229.17 836.51 L 229.17 879.49 C 229.17 880.45 228.42 881.2 227.46 881.2 L 184.48 881.2 C 183.52 881.2 182.77 880.45 182.77 879.49 L 182.77 836.51 C 182.77 835.55 183.52 834.8 184.48 834.8 Z" fill="#434445" style="fill: light-dark(rgb(67, 68, 69), rgb(178, 179, 180));" stroke="none" pointer-events="all"/></g><g><g><switch><foreignObject style="overflow: visible; text-align: left;" pointer-events="none" width="100%" height="100%" requiredFeatures="http://www.w3.org/TR/SVG11/feature#Extensibility"><div xmlns="http://www.w3.org/1999/xhtml" style="display: flex; align-items: unsafe flex-start; justify-content: unsafe center; width: 1px; height: 1px; padding-top: 890px; margin-left: 206px;"><div style="box-sizing: border-box; font-size: 0; text-align: center; color: #000000; "><div style="display: inline-block; font-size: 12px; font-family: Verdana; color: light-dark(#000000, #ededed); line-height: 1.2; pointer-events: all; white-space: nowrap; ">Kali-linux</div></div></div></foreignObject><text x="206" y="902" fill="#000000" font-family="Verdana" font-size="12px" text-anchor="middle">Kali-lin...</text></switch></g></g></g><g data-cell-id="-OQlE5UzZAIxYqtkla3L-22"><g transform="translate(0.5,0.5)"><rect x="10.97" y="833" width="50" height="50" fill="none" stroke="none" pointer-events="all"/><path d="M 38.92 851.75 L 35.86 851.75 L 35.8 862.08 L 37.74 862.08 L 37.71 853.84 L 39.81 862.08 L 41.79 862.08 L 43.89 853.84 L 43.89 862.08 L 45.81 862.08 L 45.79 851.75 L 42.69 851.75 L 40.85 858.9 Z M 27.3 851.75 L 25.05 851.75 L 28.75 862.08 L 30.99 862.08 L 34.67 851.75 L 32.51 851.75 L 29.94 859.48 Z M 14.48 833 C 12.55 833 10.97 834.58 10.97 836.51 L 10.97 879.49 C 10.97 881.42 12.55 883 14.49 883 L 57.46 883 C 59.39 883 60.97 881.42 60.97 879.49 L 60.97 836.51 C 60.97 834.58 59.39 833 57.46 833 Z M 14.48 834.8 L 57.46 834.8 C 58.42 834.8 59.17 835.55 59.17 836.51 L 59.17 879.49 C 59.17 880.45 58.42 881.2 57.46 881.2 L 14.48 881.2 C 13.52 881.2 12.77 880.45 12.77 879.49 L 12.77 836.51 C 12.77 835.55 13.52 834.8 14.48 834.8 Z" fill="#434445" style="fill: light-dark(rgb(67, 68, 69), rgb(178, 179, 180));" stroke="none" pointer-events="all"/></g><g><g><switch><foreignObject style="overflow: visible; text-align: left;" pointer-events="none" width="100%" height="100%" requiredFeatures="http://www.w3.org/TR/SVG11/feature#Extensibility"><div xmlns="http://www.w3.org/1999/xhtml" style="display: flex; align-items: unsafe flex-start; justify-content: unsafe center; width: 1px; height: 1px; padding-top: 890px; margin-left: 36px;"><div style="box-sizing: border-box; font-size: 0; text-align: center; color: #000000; "><div style="display: inline-block; font-size: 12px; font-family: Verdana; color: light-dark(#000000, #ededed); line-height: 1.2; pointer-events: all; white-space: nowrap; ">Parrot Os</div></div></div></foreignObject><text x="36" y="902" fill="#000000" font-family="Verdana" font-size="12px" text-anchor="middle">Parrot Os</text></switch></g></g></g></g><g data-cell-id="-OQlE5UzZAIxYqtkla3L-70"><g><path d="M 456.97 131.95 L 361 132 L 361 133 L 265 133 L 264.99 135.23" fill="none" stroke="#0b4d6a" style="stroke: light-dark(rgb(11, 77, 106), rgb(135, 192, 217)); animation: 500ms linear infinite ge-flow-animation--jT4Sj8HCF1u66P0ZHjW; stroke-dashoffset: 16px;" stroke-width="2" stroke-miterlimit="10" pointer-events="stroke" stroke-dasharray="8"/><path d="M 265.01 129.23 L 268.99 137.24 L 264.99 135.23 L 260.99 137.22 Z" fill="#0b4d6a" style="fill: light-dark(rgb(11, 77, 106), rgb(135, 192, 217)); stroke: light-dark(rgb(11, 77, 106), rgb(135, 192, 217));" stroke="#0b4d6a" stroke-width="2" stroke-miterlimit="10" pointer-events="all"/></g><g><g><switch><foreignObject style="overflow: visible; text-align: left;" pointer-events="none" width="100%" height="100%" requiredFeatures="http://www.w3.org/TR/SVG11/feature#Extensibility"><div xmlns="http://www.w3.org/1999/xhtml" style="display: flex; align-items: unsafe center; justify-content: unsafe center; width: 1px; height: 1px; padding-top: 133px; margin-left: 359px;"><div style="box-sizing: border-box; font-size: 0; text-align: center; color: #FF0B23; background-color: #ffffff; "><div style="display: inline-block; font-size: 14px; font-family: Verdana; color: light-dark(#FF0B23, #ff889d); line-height: 1.2; pointer-events: all; background-color: light-dark(#ffffff, var(--ge-dark-color, #121212)); white-space: nowrap; ">vmbr0</div></div></div></foreignObject><text x="359" y="137" fill="#FF0B23" font-family="Verdana" font-size="14px" text-anchor="middle">vmbr0</text></switch></g></g></g><g data-cell-id="-OQlE5UzZAIxYqtkla3L-85"><g><path d="M 441 363 L 441 343 L 440 343 L 440 433 L 351 433 L 351 517 L 230.24 517" fill="none" stroke="#0b4d6a" style="stroke: light-dark(rgb(11, 77, 106), rgb(135, 192, 217));" stroke-width="2" stroke-miterlimit="10" pointer-events="stroke"/><path d="M 224.24 517 L 232.24 513 L 230.24 517 L 232.24 521 Z" fill="#0b4d6a" style="fill: light-dark(rgb(11, 77, 106), rgb(135, 192, 217)); stroke: light-dark(rgb(11, 77, 106), rgb(135, 192, 217));" stroke="#0b4d6a" stroke-width="2" stroke-miterlimit="10" pointer-events="all"/></g></g><g data-cell-id="-OQlE5UzZAIxYqtkla3L-86"><g transform="translate(0.5,0.5)"><path d="M 273.85 673 L 444.63 673" fill="none" stroke="#0b4d6a" style="stroke: light-dark(rgb(11, 77, 106), rgb(135, 192, 217));" stroke-miterlimit="10" pointer-events="stroke"/><path d="M 449.88 673 L 442.88 676.5 L 444.63 673 L 442.88 669.5 Z" fill="#0b4d6a" style="fill: light-dark(rgb(11, 77, 106), rgb(135, 192, 217)); stroke: light-dark(rgb(11, 77, 106), rgb(135, 192, 217));" stroke="#0b4d6a" stroke-miterlimit="10" pointer-events="all"/></g><g><g><switch><foreignObject style="overflow: visible; text-align: left;" pointer-events="none" width="100%" height="100%" requiredFeatures="http://www.w3.org/TR/SVG11/feature#Extensibility"><div xmlns="http://www.w3.org/1999/xhtml" style="display: flex; align-items: unsafe center; justify-content: unsafe center; width: 1px; height: 1px; padding-top: 673px; margin-left: 320px;"><div style="box-sizing: border-box; font-size: 0; text-align: center; color: #000000; background-color: #ffffff; "><div style="display: inline-block; font-size: 14px; font-family: Verdana; color: light-dark(#000000, #ededed); line-height: 1.2; pointer-events: all; background-color: light-dark(#ffffff, var(--ge-dark-color, #121212)); white-space: nowrap; ">vmbr2</div></div></div></foreignObject><text x="320" y="677" fill="#000000" font-family="Verdana" font-size="14px" text-anchor="middle">vmbr2</text></switch></g></g></g><g data-cell-id="-OQlE5UzZAIxYqtkla3L-87"><g transform="translate(0.5,0.5)"><path d="M 202.5 693 L 202.5 733 L 101 733 L 101 823 L 111 823 L 111 826.63" fill="none" stroke="#0b4d6a" style="stroke: light-dark(rgb(11, 77, 106), rgb(135, 192, 217));" stroke-miterlimit="10" pointer-events="stroke"/><path d="M 111 831.88 L 107.5 824.88 L 111 826.63 L 114.5 824.88 Z" fill="#0b4d6a" style="fill: light-dark(rgb(11, 77, 106), rgb(135, 192, 217)); stroke: light-dark(rgb(11, 77, 106), rgb(135, 192, 217));" stroke="#0b4d6a" stroke-miterlimit="10" pointer-events="all"/></g><g><g><switch><foreignObject style="overflow: visible; text-align: left;" pointer-events="none" width="100%" height="100%" requiredFeatures="http://www.w3.org/TR/SVG11/feature#Extensibility"><div xmlns="http://www.w3.org/1999/xhtml" style="display: flex; align-items: unsafe center; justify-content: unsafe center; width: 1px; height: 1px; padding-top: 733px; margin-left: 127px;"><div style="box-sizing: border-box; font-size: 0; text-align: center; color: #000000; background-color: #ffffff; "><div style="display: inline-block; font-size: 14px; font-family: Verdana; color: light-dark(#000000, #ededed); line-height: 1.2; pointer-events: all; background-color: light-dark(#ffffff, var(--ge-dark-color, #121212)); white-space: nowrap; ">Vmbr1</div></div></div></foreignObject><text x="127" y="737" fill="#000000" font-family="Verdana" font-size="14px" text-anchor="middle">Vmbr1</text></switch></g></g></g><g data-cell-id="-OQlE5UzZAIxYqtkla3L-95"><g><path d="M 589.19 884.99 L 691 885 L 691 751.24" fill="none" stroke="#0b4d6a" style="stroke: light-dark(rgb(11, 77, 106), rgb(135, 192, 217)); animation: 500ms linear infinite ge-flow-animation--jT4Sj8HCF1u66P0ZHjW; stroke-dashoffset: 16px;" stroke-width="2" stroke-miterlimit="10" pointer-events="stroke" stroke-dasharray="8"/><path d="M 583.19 884.99 L 591.19 880.99 L 589.19 884.99 L 591.19 888.99 Z" fill="#0b4d6a" style="fill: light-dark(rgb(11, 77, 106), rgb(135, 192, 217)); stroke: light-dark(rgb(11, 77, 106), rgb(135, 192, 217));" stroke="#0b4d6a" stroke-width="2" stroke-miterlimit="10" pointer-events="all"/><path d="M 691 745.24 L 695 753.24 L 691 751.24 L 687 753.24 Z" fill="#0b4d6a" style="fill: light-dark(rgb(11, 77, 106), rgb(135, 192, 217)); stroke: light-dark(rgb(11, 77, 106), rgb(135, 192, 217));" stroke="#0b4d6a" stroke-width="2" stroke-miterlimit="10" pointer-events="all"/></g><g><g fill="#000000" style="fill: light-dark(rgb(0, 0, 0), rgb(255, 255, 255));" font-family="Verdana" text-anchor="middle" font-size="12px"><text x="699" y="850.04"><tspan>Monitored Traffic/IDS</tspan></text></g></g></g><g data-cell-id="-OQlE5UzZAIxYqtkla3L-96"><g><path d="M 481.81 913.99 L 251.01 913.03" fill="none" stroke="#0b4d6a" style="stroke: light-dark(rgb(11, 77, 106), rgb(135, 192, 217)); animation: 500ms linear infinite ge-flow-animation--jT4Sj8HCF1u66P0ZHjW; stroke-dashoffset: 16px;" stroke-width="2" stroke-miterlimit="10" pointer-events="stroke" stroke-dasharray="8"/><path d="M 487.81 914.02 L 479.79 917.98 L 481.81 913.99 L 479.82 909.98 Z" fill="#0b4d6a" style="fill: light-dark(rgb(11, 77, 106), rgb(135, 192, 217)); stroke: light-dark(rgb(11, 77, 106), rgb(135, 192, 217));" stroke="#0b4d6a" stroke-width="2" stroke-miterlimit="10" pointer-events="all"/><path d="M 245.01 913.01 L 253.02 909.04 L 251.01 913.03 L 252.99 917.04 Z" fill="#0b4d6a" style="fill: light-dark(rgb(11, 77, 106), rgb(135, 192, 217)); stroke: light-dark(rgb(11, 77, 106), rgb(135, 192, 217));" stroke="#0b4d6a" stroke-width="2" stroke-miterlimit="10" pointer-events="all"/></g><g><g><switch><foreignObject style="overflow: visible; text-align: left;" pointer-events="none" width="100%" height="100%" requiredFeatures="http://www.w3.org/TR/SVG11/feature#Extensibility"><div xmlns="http://www.w3.org/1999/xhtml" style="display: flex; align-items: unsafe center; justify-content: unsafe center; width: 1px; height: 1px; padding-top: 923px; margin-left: 363px;"><div style="box-sizing: border-box; font-size: 0; text-align: center; color: #000000; background-color: #ffffff; "><div style="display: inline-block; font-size: 12px; font-family: Verdana; color: light-dark(#000000, #ffffff); line-height: 1.2; pointer-events: all; background-color: light-dark(#ffffff, var(--ge-dark-color, #121212)); white-space: nowrap; ">Monitored Traffic/IDS</div></div></div></foreignObject><text x="363" y="927" fill="light-dark(#000000, #ffffff)" font-family="Verdana" font-size="12px" text-anchor="middle">Monitored...</text></switch></g></g></g><g data-cell-id="-OQlE5UzZAIxYqtkla3L-107"><g><path d="M 121 513 L 81 513 L 81 753 L 81 828.53" fill="none" stroke="#0b4d6a" style="stroke: light-dark(rgb(11, 77, 106), rgb(135, 192, 217)); animation: 500ms linear infinite ge-flow-animation--jT4Sj8HCF1u66P0ZHjW; stroke-dashoffset: 16px;" stroke-width="2" stroke-miterlimit="10" pointer-events="stroke" stroke-dasharray="8"/><path d="M 74 816.76 L 81 830.76 L 88 816.76" fill="none" stroke="#0b4d6a" style="stroke: light-dark(rgb(11, 77, 106), rgb(135, 192, 217));" stroke-width="2" stroke-miterlimit="10" pointer-events="all"/></g><g><g><switch><foreignObject style="overflow: visible; text-align: left;" pointer-events="none" width="100%" height="100%" requiredFeatures="http://www.w3.org/TR/SVG11/feature#Extensibility"><div xmlns="http://www.w3.org/1999/xhtml" style="display: flex; align-items: unsafe center; justify-content: unsafe center; width: 1px; height: 1px; padding-top: 653px; margin-left: 81px;"><div style="box-sizing: border-box; font-size: 0; text-align: center; color: #000000; background-color: #ffffff; "><div style="display: inline-block; font-size: 12px; font-family: Verdana; color: light-dark(#000000, #ffffff); line-height: 1.2; pointer-events: all; background-color: light-dark(#ffffff, var(--ge-dark-color, #121212)); white-space: nowrap; ">Vmbr0</div></div></div></foreignObject><text x="81" y="657" fill="light-dark(#000000, #ffffff)" font-family="Verdana" font-size="12px" text-anchor="middle">Vmbr0</text></switch></g></g></g><g data-cell-id="-OQlE5UzZAIxYqtkla3L-109"><g><path d="M 166.5 550.49 L 166.5 553 L 308 553 L 308 583 L 214 583 L 214 594 L 212.23 594" fill="none" stroke="#0b4d6a" style="stroke: light-dark(rgb(11, 77, 106), rgb(135, 192, 217));" stroke-width="2" stroke-miterlimit="10" pointer-events="stroke"/><path d="M 206.23 594 L 214.23 590 L 212.23 594 L 214.23 598 Z" fill="#0b4d6a" style="fill: light-dark(rgb(11, 77, 106), rgb(135, 192, 217)); stroke: light-dark(rgb(11, 77, 106), rgb(135, 192, 217));" stroke="#0b4d6a" stroke-width="2" stroke-miterlimit="10" pointer-events="all"/></g></g><g data-cell-id="-OQlE5UzZAIxYqtkla3L-38"><g transform="translate(0.5,0.5)"><rect x="131" y="593" width="142.85" height="100" fill="none" stroke="none" pointer-events="all"/><path d="M 194.15 593 L 194.15 594.67 L 194.15 642.5 L 189.21 642.5 L 189.21 654.02 L 177.69 654.02 L 177.69 659.03 L 131 659.03 L 131 660.7 L 131 675.69 L 177.69 675.69 L 177.69 680.74 L 179.34 680.74 L 183.41 680.74 C 183.38 681.51 183.44 682.28 183.58 683.02 L 183.59 683.03 L 183.59 683.05 C 184.24 686.14 185.59 688.68 187.66 690.42 C 189.74 692.15 192.47 693 195.58 693 L 235.74 693 C 238.98 693 242.52 692.23 245.61 690.16 C 248.7 688.09 251.26 684.69 252.47 679.78 L 252.48 679.72 L 252.49 679.67 C 252.74 678.28 252.83 676.95 252.79 675.69 L 273.85 675.69 L 273.85 659.03 L 241.68 659.03 C 240.71 654.28 237.54 649.53 231.76 647.83 L 231.71 647.81 L 231.67 647.8 C 229.48 647.29 227.48 647.11 225.64 647.23 C 223.81 647.35 222.15 647.75 220.66 648.39 C 218.7 649.24 217.11 650.51 215.73 651.96 L 215.73 642.5 L 210.64 642.5 L 210.64 593 Z M 197.47 596.33 L 207.33 596.33 L 207.33 642.5 L 197.47 642.5 Z M 192.52 645.84 L 212.41 645.84 L 212.41 652.53 C 211.3 652.28 210.04 652.26 208.57 652.77 L 208.53 652.78 L 208.48 652.8 C 206.58 653.59 205.29 654.58 204.55 655.79 C 204.13 656.46 203.92 657.13 203.78 657.78 C 199.83 657.64 196.9 659.16 194.83 661.07 L 194.78 661.11 L 194.75 661.15 C 192.29 663.73 191.4 667.03 191.52 670.05 C 187.63 671.33 185.11 674.21 184.02 677.4 L 181 677.4 L 181 657.35 L 192.52 657.35 Z M 226.42 650.52 C 227.73 650.49 229.2 650.65 230.86 651.04 C 236.35 652.68 238.84 657.91 238.81 662.22 L 238.8 663.46 L 239.97 663.83 C 242.35 664.57 245.12 666.2 247.02 668.69 C 248.91 671.17 250.03 674.46 249.23 679.03 C 248.19 683.21 246.18 685.77 243.77 687.39 C 241.35 689.01 238.46 689.67 235.74 689.67 L 195.58 689.67 C 193.05 689.67 191.18 689.02 189.78 687.85 C 188.39 686.68 187.38 684.91 186.84 682.38 C 186.17 678.81 188.14 674.01 193.57 672.89 L 195.13 672.57 L 194.88 670.99 C 194.49 668.56 195.09 665.64 197.12 663.48 C 199.08 661.69 201.03 660.53 204.92 661.14 L 206.61 661.4 L 206.82 659.7 C 206.95 658.67 207.07 658.03 207.37 657.54 C 207.67 657.06 208.23 656.52 209.7 655.91 C 211.76 655.2 212.45 655.82 214.18 656.76 L 215.45 657.45 L 216.3 656.28 C 217.88 654.15 219.69 652.44 221.97 651.46 C 223.12 650.96 224.39 650.64 225.86 650.55 C 226.04 650.53 226.23 650.53 226.42 650.52 Z M 134.32 662.36 L 177.69 662.36 L 177.69 672.36 L 134.32 672.36 Z M 244.73 662.36 L 270.53 662.36 L 270.53 672.36 L 252.35 672.36 C 251.82 670.16 250.87 668.25 249.65 666.66 C 248.24 664.81 246.52 663.4 244.73 662.36 Z" fill="#434445" style="fill: light-dark(rgb(67, 68, 69), rgb(178, 179, 180));" stroke="none" pointer-events="all"/></g><g><g><switch><foreignObject style="overflow: visible; text-align: left;" pointer-events="none" width="100%" height="100%" requiredFeatures="http://www.w3.org/TR/SVG11/feature#Extensibility"><div xmlns="http://www.w3.org/1999/xhtml" style="display: flex; align-items: unsafe flex-start; justify-content: unsafe center; width: 1px; height: 1px; padding-top: 700px; margin-left: 202px;"><div style="box-sizing: border-box; font-size: 0; text-align: center; color: #000000; "><div style="display: inline-block; font-size: 12px; font-family: Helvetica; color: light-dark(#000000, #ededed); line-height: 1.2; pointer-events: all; white-space: nowrap; "><font style="font-size: 18px;">LAN</font></div></div></div></foreignObject><text x="202" y="712" fill="#000000" font-family="Helvetica" font-size="12px" text-anchor="middle">LAN</text></switch></g></g></g><g data-cell-id="-OQlE5UzZAIxYqtkla3L-112"><g transform="translate(0.5,0.5)"><path d="M 215.96 148.82 L 215.96 204.88" fill="none" stroke="#0b4d6a" style="stroke: light-dark(rgb(11, 77, 106), rgb(135, 192, 217));" stroke-miterlimit="10" pointer-events="stroke"/><path d="M 215.96 211.88 L 212.46 204.88 L 219.46 204.88 Z" fill="#0b4d6a" style="fill: light-dark(rgb(11, 77, 106), rgb(135, 192, 217)); stroke: light-dark(rgb(11, 77, 106), rgb(135, 192, 217));" stroke="#0b4d6a" stroke-miterlimit="10" pointer-events="all"/></g><g data-cell-id="-OQlE5UzZAIxYqtkla3L-113"><g><g><switch><foreignObject style="overflow: visible; text-align: left;" pointer-events="none" width="100%" height="100%" requiredFeatures="http://www.w3.org/TR/SVG11/feature#Extensibility"><div xmlns="http://www.w3.org/1999/xhtml" style="display: flex; align-items: unsafe flex-end; justify-content: unsafe flex-start; width: 1px; height: 1px; padding-top: 147px; margin-left: 218px;"><div style="box-sizing: border-box; font-size: 0; text-align: left; color: #EEEEEE; background-color: #ffffff; "><div style="display: inline-block; font-size: 11px; font-family: Helvetica; color: light-dark(#EEEEEE, #202020); line-height: 1.2; pointer-events: all; background-color: light-dark(#ffffff, var(--ge-dark-color, #121212)); white-space: nowrap; ">1</div></div></div></foreignObject><text x="218" y="147" fill="#EEEEEE" font-family="Helvetica" font-size="11px">1</text></switch></g></g></g></g><g data-cell-id="-OQlE5UzZAIxYqtkla3L-97"><g><image x="190.97" y="213" width="50" height="50" xlink:href="https://app.diagrams.net/img/lib/mscae/Virtual_WANs.svg"/></g><g><g fill="#000000" style="fill: light-dark(rgb(0, 0, 0), rgb(237, 237, 237));" font-family="Helvetica" text-anchor="middle" font-size="12px"><text x="215.97" y="281"><tspan>WAN</tspan></text></g></g></g><g data-cell-id="-OQlE5UzZAIxYqtkla3L-114"><g transform="translate(0.5,0.5)"><path d="M 216 193 L 216 258.5 L 198 258.5 L 197.99 343.88" fill="none" stroke="#0b4d6a" style="stroke: light-dark(rgb(11, 77, 106), rgb(135, 192, 217));" stroke-miterlimit="10" pointer-events="stroke"/><path d="M 197.99 350.88 L 194.49 343.88 L 201.49 343.88 Z" fill="#0b4d6a" style="fill: light-dark(rgb(11, 77, 106), rgb(135, 192, 217)); stroke: light-dark(rgb(11, 77, 106), rgb(135, 192, 217));" stroke="#0b4d6a" stroke-miterlimit="10" pointer-events="all"/></g></g><g data-cell-id="-OQlE5UzZAIxYqtkla3L-19"><g transform="translate(0.5,0.5)"><path d="M 239.56 370.01 L 154.21 370.01 C 152.95 370.01 151.92 368.98 151.92 367.71 L 151.92 349.59 C 151.92 348.32 152.95 347.29 154.21 347.29 L 239.56 347.29 C 240.82 347.29 241.85 348.32 241.85 349.59 L 241.85 367.71 C 241.85 368.98 240.82 370.01 239.56 370.01 Z" fill="#ededed" style="fill: light-dark(rgb(237, 237, 237), rgb(33, 33, 33));" stroke="none" pointer-events="all"/><path d="M 235.23 358.33 C 235.23 359.86 234 361.09 232.47 361.09 C 230.95 361.09 229.72 359.86 229.72 358.33 C 229.72 356.81 230.95 355.58 232.47 355.58 C 234 355.58 235.23 356.81 235.23 358.33 Z M 222.33 355.58 C 220.81 355.58 219.58 356.81 219.58 358.33 C 219.58 359.86 220.81 361.09 222.33 361.09 C 223.86 361.09 225.09 359.86 225.09 358.33 C 225.09 356.81 223.86 355.58 222.33 355.58 Z M 212.19 355.58 C 210.67 355.58 209.44 356.81 209.44 358.33 C 209.44 359.86 210.67 361.09 212.19 361.09 C 213.72 361.09 214.95 359.86 214.95 358.33 C 214.95 356.81 213.72 355.58 212.19 355.58 Z" fill="#9da6a8" style="fill: light-dark(rgb(157, 166, 168), rgb(89, 97, 98));" stroke="none" pointer-events="all"/><path d="M 202.62 354.06 L 158.36 354.06 C 157.86 354.06 157.44 353.64 157.44 353.14 C 157.44 352.63 157.86 352.22 158.36 352.22 L 202.62 352.22 C 203.13 352.22 203.54 352.63 203.54 353.14 C 203.54 353.64 203.13 354.06 202.62 354.06 Z M 203.54 358.66 C 203.54 358.15 203.13 357.74 202.62 357.74 L 158.36 357.74 C 157.86 357.74 157.44 358.15 157.44 358.66 C 157.44 359.16 157.86 359.57 158.36 359.57 L 202.62 359.57 C 203.13 359.57 203.54 359.16 203.54 358.66 Z M 203.54 364.17 C 203.54 363.67 203.13 363.25 202.62 363.25 L 158.36 363.25 C 157.86 363.25 157.44 363.67 157.44 364.17 C 157.44 364.68 157.86 365.09 158.36 365.09 L 202.62 365.09 C 203.13 365.09 203.54 364.68 203.54 364.17 Z M 236.14 358.33 C 236.14 356.31 234.5 354.66 232.47 354.66 C 230.45 354.66 228.8 356.31 228.8 358.33 C 228.8 360.36 230.45 362.01 232.47 362.01 C 234.5 362.01 236.14 360.35 236.14 358.33 Z M 234.31 358.33 C 234.31 359.34 233.48 360.17 232.47 360.17 C 231.46 360.17 230.64 359.34 230.64 358.33 C 230.64 357.32 231.46 356.5 232.47 356.5 C 233.48 356.5 234.31 357.32 234.31 358.33 Z M 226 358.33 C 226 356.31 224.36 354.66 222.33 354.66 C 220.3 354.66 218.66 356.31 218.66 358.33 C 218.66 360.36 220.3 362.01 222.33 362.01 C 224.36 362.01 226 360.35 226 358.33 Z M 224.17 358.33 C 224.17 359.34 223.34 360.17 222.33 360.17 C 221.32 360.17 220.5 359.34 220.5 358.33 C 220.5 357.32 221.32 356.5 222.33 356.5 C 223.35 356.5 224.17 357.32 224.17 358.33 Z M 215.86 358.33 C 215.86 356.31 214.22 354.66 212.19 354.66 C 210.16 354.66 208.52 356.31 208.52 358.33 C 208.52 360.36 210.16 362.01 212.19 362.01 C 214.22 362.01 215.86 360.35 215.86 358.33 Z M 214.03 358.33 C 214.03 359.34 213.2 360.17 212.19 360.17 C 211.18 360.17 210.36 359.34 210.36 358.33 C 210.36 357.32 211.18 356.5 212.19 356.5 C 213.21 356.5 214.03 357.32 214.03 358.33 Z M 239.56 346.38 L 228 346.38 L 227.51 325.15 C 227.48 324.62 227.28 324.21 226.99 323.93 C 226.03 323 224.11 323.41 224.01 325.15 C 224.02 325.2 223.61 342.23 223.52 346.38 L 170.24 346.38 L 169.76 325.15 C 169.73 324.66 169.56 324.28 169.3 324 L 169.2 323.9 C 168.79 323.52 168.21 323.38 167.67 323.48 C 167.02 323.6 166.44 324.06 166.29 324.85 C 166.27 324.95 166.26 325.05 166.25 325.15 C 166.25 325.2 165.85 342.23 165.76 346.38 L 154.21 346.38 C 152.44 346.38 151 347.82 151 349.59 L 151 367.71 C 151 368.54 151.31 369.3 151.84 369.87 C 151.84 369.87 151.84 369.87 151.84 369.87 C 151.91 369.94 151.97 370.02 152.06 370.09 C 152.06 370.09 152.06 370.09 152.06 370.09 C 152.62 370.61 153.39 370.93 154.21 370.93 L 161.35 370.93 L 161.35 372.42 C 161.35 372.93 161.76 373.34 162.27 373.34 L 173.74 373.34 C 174.25 373.34 174.66 372.93 174.66 372.42 L 174.66 370.93 L 219.1 370.93 L 219.1 372.42 C 219.1 372.93 219.52 373.34 220.02 373.34 L 231.49 373.34 C 232 373.34 232.41 372.93 232.41 372.42 L 232.41 370.93 L 239.55 370.93 C 241.32 370.93 242.76 369.49 242.76 367.71 L 242.76 349.59 C 242.77 347.82 241.33 346.38 239.56 346.38 Z M 240.93 367.71 C 240.93 368.48 240.32 369.09 239.56 369.09 L 154.21 369.09 C 153.45 369.09 152.84 368.48 152.84 367.71 L 152.84 349.59 C 152.84 348.83 153.45 348.21 154.21 348.21 L 239.56 348.21 C 240.32 348.21 240.93 348.83 240.93 349.59 L 240.93 367.71 Z" fill="#000000" style="fill: light-dark(rgb(0, 0, 0), rgb(237, 237, 237));" stroke="none" pointer-events="all"/></g><g><g fill="#000000" style="fill: light-dark(rgb(0, 0, 0), rgb(237, 237, 237));" font-family="Verdana" text-anchor="middle" font-size="12px"><text x="196.88" y="391.34">Personal router</text></g></g></g><g data-cell-id="-OQlE5UzZAIxYqtkla3L-115"><g transform="translate(0.5,0.5)"><rect x="491" y="863" width="90" height="90" fill="none" stroke="none" pointer-events="all"/><path d="M 541.3 896.75 L 535.79 896.75 L 535.7 915.34 L 539.19 915.34 L 539.13 900.51 L 542.91 915.34 L 546.47 915.34 L 550.25 900.51 L 550.25 915.34 L 553.72 915.34 L 553.68 896.75 L 548.1 896.75 L 544.78 909.61 Z M 520.39 896.75 L 516.34 896.75 L 523 915.34 L 527.04 915.34 L 533.67 896.75 L 529.76 896.75 L 525.14 910.66 Z M 497.32 863 C 493.85 863 491 865.85 491 869.31 L 491 946.68 C 491 950.15 493.85 953 497.33 953 L 574.68 953 C 578.15 953 581 950.15 581 946.68 L 581 869.31 C 581 865.85 578.15 863 574.68 863 Z M 497.32 866.24 L 574.68 866.24 C 576.41 866.24 577.75 867.58 577.75 869.31 L 577.75 946.68 C 577.75 948.42 576.41 949.76 574.68 949.76 L 497.32 949.76 C 495.59 949.76 494.25 948.42 494.25 946.68 L 494.25 869.31 C 494.25 867.58 495.59 866.24 497.32 866.24 Z" fill="#434445" style="fill: light-dark(rgb(67, 68, 69), rgb(178, 179, 180));" stroke="none" pointer-events="all"/></g><g><g><switch><foreignObject style="overflow: visible; text-align: left;" pointer-events="none" width="100%" height="100%" requiredFeatures="http://www.w3.org/TR/SVG11/feature#Extensibility"><div xmlns="http://www.w3.org/1999/xhtml" style="display: flex; align-items: unsafe flex-start; justify-content: unsafe center; width: 1px; height: 1px; padding-top: 960px; margin-left: 536px;"><div style="box-sizing: border-box; font-size: 0; text-align: center; color: #000000; "><div style="display: inline-block; font-size: 12px; font-family: Helvetica; color: light-dark(#000000, #202020); line-height: 1.2; pointer-events: all; white-space: nowrap; "><font face="Verdana" style="font-size: 13px;">SecurityOnion</font></div></div></div></foreignObject><text x="536" y="972" fill="light-dark(#000000, #202020)" font-family="Helvetica" font-size="12px" text-anchor="middle">SecurityOnion</text></switch></g></g></g><g data-cell-id="-OQlE5UzZAIxYqtkla3L-116"><g><image x="517.5" y="913" width="37" height="50" xlink:href="https://app.diagrams.net/img/lib/mscae/Application_Security_Groups.svg"/></g></g></g></g></g><switch><g requiredFeatures="http://www.w3.org/TR/SVG11/feature#Extensibility"/><a transform="translate(0,-5)" xlink:href="https://www.drawio.com/doc/faq/svg-export-text-problems" target="_blank"><text text-anchor="middle" font-size="10px" x="50%" y="100%">Text is not SVG - cannot display</text></a></switch></svg>